<?xml version="1.0" encoding="utf-8"?>
<!-- Generator: Adobe Illustrator 23.0.1, SVG Export Plug-In . SVG Version: 6.00 Build 0)  -->
<svg version="1.1" id="b690aa78-7666-41f1-bbc9-06a816d34c08"
	 xmlns="http://www.w3.org/2000/svg" xmlns:xlink="http://www.w3.org/1999/xlink" x="0px" y="0px" viewBox="0 0 207.3 200"
	 style="enable-background:new 0 0 207.3 200;" xml:space="preserve">
<path class="st0" d="M207.3,9.1L207.3,9.1c0-5-4.1-9.1-9.1-9.1c0,0,0,0,0,0H9.1C4.1,0,0,4.1,0,9.1l0,0c0,5,4.1,9.1,9.1,9.1h47.6
	c5,0,9.1,4.1,9.1,9.1l0,0c0,5-4.1,9.1-9.1,9.1H39.6c-5,0-9.1,4.1-9.1,9.1l0,0c0,5,4.1,9.1,9.1,9.1c0,0,0,0,0,0h35.3
	c5,0,9.1,4.1,9.1,9.1l0,0c0,5-4.1,9.1-9.1,9.1H58.2c-5,0-9.1,4.1-9.1,9.1l0,0c0,5,4.1,9.1,9.1,9.1h10.6c5,0,9.1,4.1,9.1,9.1v0l0,0
	c0,5-4.1,9.1-9.1,9.1H34.2c-5,0-9.1,4.1-9.1,9.1l0,0c0,5,4.1,9.1,9.1,9.1h14.5c5,0,9.1,4.1,9.1,9.1l0,0c0,5-4.1,9.1-9.1,9.1H17.5
	c-5,0-9.1,4.1-9.1,9.1c0,0,0,0,0,0l0,0c0,5,4.1,9.1,9.1,9.1h39.3c5,0,9.1,4.1,9.1,9.1l0,0c0,5-4.1,9.1-9.1,9.1H9.1
	c-5,0-9.1,4.1-9.1,9.1c0,0,0,0,0,0l0,0c0,5,4.1,9.1,9.1,9.1h189.1c5,0,9.1-4.1,9.1-9.1l0,0c0-5-4.1-9.1-9.1-9.1h-47.6
	c-5,0-9.1-4.1-9.1-9.1c0,0,0,0,0,0l0,0c0-5,4.1-9.1,9.1-9.1c0,0,0,0,0,0h39.3c5,0,9.1-4.1,9.1-9.1l0,0c0-5-4.1-9.1-9.1-9.1
	c0,0,0,0,0,0h-31.3c-5,0-9.1-4.1-9.1-9.1c0,0,0,0,0,0l0,0c0-5,4.1-9.1,9.1-9.1c0,0,0,0,0,0h14.5c5,0,9.1-4.1,9.1-9.1l0,0
	c0-5-4.1-9.1-9.1-9.1h-34.5c-5,0-9.1-4.1-9.1-9.1c0,0,0,0,0,0l0,0c0-5,4.1-9.1,9.1-9.1c0,0,0,0,0,0h10.5c5,0,9.1-4.1,9.1-9.1l0,0
	c0-5-4.1-9.1-9.1-9.1h-16.7c-5,0-9.1-4.1-9.1-9.1l0,0c0-5,4.1-9.1,9.1-9.1h35.3c5,0,9.1-4.1,9.1-9.1c0,0,0,0,0,0l0,0
	c0-5-4.1-9.1-9.1-9.1h-17.1c-5,0-9.1-4.1-9.1-9.1c0,0,0,0,0,0l0,0c0-5,4.1-9.1,9.1-9.1c0,0,0,0,0,0h47.6
	C203.2,18.2,207.3,14.1,207.3,9.1C207.3,9.1,207.3,9.1,207.3,9.1z"/>
</svg>
