<svg id="a0ea573d-f98c-4ce8-bd6d-ccb0c0d1db9f" data-name="cloud1" xmlns="http://www.w3.org/2000/svg" viewBox="0 0 230.91 199.86"><title>Cloud5</title><path d="M230.91,9.08h0A9.09,9.09,0,0,0,221.82,0H9.09A9.09,9.09,0,0,0,0,9.08H0a9.09,9.09,0,0,0,9.09,9.09H67.64a9.09,9.09,0,0,1,9.09,9.08h0a9.09,9.09,0,0,1-9.09,9.09H65.45a9.08,9.08,0,0,0-9.09,9.08h0a9.09,9.09,0,0,0,9.09,9.09H84.36a9.08,9.08,0,0,1,9.09,9.08h0a9.09,9.09,0,0,1-9.09,9.09H41.82a9.08,9.08,0,0,0-9.09,9.08h0a9.08,9.08,0,0,0,9.09,9.08H58.55a9.09,9.09,0,0,1,9.09,9.09h0A9.08,9.08,0,0,1,58.55,109H24a9.09,9.09,0,0,0-9.09,9.09h0A9.09,9.09,0,0,0,24,127.18H75.27a9.09,9.09,0,0,1,9.09,9.09h0a9.09,9.09,0,0,1-9.09,9.08H50.18a9.09,9.09,0,0,0-9.09,9.09h0a9.09,9.09,0,0,0,9.09,9.08h8.37a9.09,9.09,0,0,1,9.09,9.08h0a9.09,9.09,0,0,1-9.09,9.09H13.82a9.09,9.09,0,0,0-9.09,9.08h0a9.09,9.09,0,0,0,9.09,9.09H217.09a9.09,9.09,0,0,0,9.09-9.09h0a9.09,9.09,0,0,0-9.09-9.08H172.36a9.09,9.09,0,0,1-9.09-9.09h0a9.09,9.09,0,0,1,9.09-9.08h8.37a9.09,9.09,0,0,0,9.09-9.08h0a9.09,9.09,0,0,0-9.09-9.09H155.64a9.09,9.09,0,0,1-9.09-9.08h0a9.09,9.09,0,0,1,9.09-9.09h51.27A9.09,9.09,0,0,0,216,118.1h0a9.09,9.09,0,0,0-9.09-9.09H172.36a9.08,9.08,0,0,1-9.09-9.08h0a9.09,9.09,0,0,1,9.09-9.09h16.73a9.08,9.08,0,0,0,9.09-9.08h0a9.08,9.08,0,0,0-9.09-9.08H146.55a9.09,9.09,0,0,1-9.1-9.09h0a9.08,9.08,0,0,1,9.1-9.08h18.9a9.09,9.09,0,0,0,9.1-9.09h0a9.08,9.08,0,0,0-9.1-9.08h-2.18a9.09,9.09,0,0,1-9.09-9.09h0a9.09,9.09,0,0,1,9.09-9.08h58.55A9.09,9.09,0,0,0,230.91,9.08Z"/></svg>