<svg id="ab37e618-ed2b-40c0-b9ea-bb06c106c21b" data-name="Layer 1" xmlns="http://www.w3.org/2000/svg" viewBox="0 0 690 200.35"><title>cloudWrap1</title><rect x="264.19" y="0.49" width="79" height="18.17" rx="9"/><rect x="396.19" y="18.66" width="61" height="18.17" rx="9"/><rect x="166.19" y="36.83" width="95" height="18.17" rx="9"/><rect x="338.19" y="55" width="31" height="18.17" rx="9"/><rect x="443.19" y="73.17" width="61" height="18.17" rx="9"/><rect x="244.19" y="91.34" width="79" height="18.17" rx="9"/><rect x="410.19" y="109.51" width="47" height="18.17" rx="9"/><rect x="292.19" y="127.68" width="95" height="18.17" rx="9"/><rect x="193.19" y="145.84" width="61" height="18.17" rx="9"/><rect x="395.19" y="182.01" width="25" height="18.17" rx="9"/><rect x="451.19" y="146.18" width="85" height="18.17" rx="9"/><rect x="165.19" y="91.01" width="25" height="18.17" rx="9"/><rect x="174.19" width="31" height="18.17" rx="9"/><rect x="38.19" y="0.49" width="79" height="18.17" rx="9"/><path d="M26.19,55a9,9,0,0,0,9-9v-.17a9,9,0,0,0-9-9H0V55Z"/><rect x="112.19" y="55" width="31" height="18.17" rx="9"/><rect x="18.19" y="91.34" width="79" height="18.17" rx="9"/><rect x="66.19" y="127.68" width="95" height="18.17" rx="9"/><path d="M19.19,164a9,9,0,0,0,9-9v-.17a9,9,0,0,0-9-9H0V164Z"/><rect x="170.19" y="182.18" width="53.81" height="18.17" rx="9"/><rect x="94.19" y="182.01" width="25" height="18.17" rx="9"/><path d="M27.19,182.18H0v18.17H27.19a9,9,0,0,0,9-9v-.17A9,9,0,0,0,27.19,182.18Z"/><rect x="317.19" y="164.18" width="53.81" height="18.17" rx="9"/><rect x="507.19" y="18.66" width="61" height="18.17" rx="9"/><path d="M630.19,45.83V46a9,9,0,0,0,9,9H690V36.83H639.19A9,9,0,0,0,630.19,45.83Z"/><rect x="477.19" y="182.17" width="61" height="18.17" rx="9"/><rect x="521.19" y="109.51" width="47" height="18.17" rx="9"/><path d="M657.19,154.84V155a9,9,0,0,0,9,9H690V145.84H666.19A9,9,0,0,0,657.19,154.84Z"/><rect x="582.19" y="164.01" width="25" height="18.17" rx="9"/><rect x="649.19" y="91.01" width="25" height="18.17" rx="9"/><rect x="638.19" width="31" height="18.17" rx="9"/><path d="M650.19,182.18a9,9,0,0,0-9,9v.17a9,9,0,0,0,9,9H690V182.18Z"/><rect x="538.19" y="55.17" width="61" height="18.17" rx="9"/></svg>