<svg id="bdd7154f-4eda-47c4-992f-fb7f23df8587" data-name="cloud1" xmlns="http://www.w3.org/2000/svg" viewBox="0 0 207.27 199.86"><title>Cloud1</title><path d="M207.27,9.08h0A9.09,9.09,0,0,0,198.18,0H9.09A9.09,9.09,0,0,0,0,9.08H0a9.09,9.09,0,0,0,9.09,9.09H56.73a9.09,9.09,0,0,1,9.09,9.08h0a9.09,9.09,0,0,1-9.09,9.09H39.64a9.08,9.08,0,0,0-9.09,9.08h0a9.09,9.09,0,0,0,9.09,9.09H74.91A9.08,9.08,0,0,1,84,63.59h0a9.09,9.09,0,0,1-9.09,9.09H58.18a9.08,9.08,0,0,0-9.09,9.08h0a9.08,9.08,0,0,0,9.09,9.08H68.73a9.09,9.09,0,0,1,9.09,9.09h0A9.08,9.08,0,0,1,68.73,109H34.18a9.09,9.09,0,0,0-9.09,9.09h0a9.09,9.09,0,0,0,9.09,9.08H48.73a9.09,9.09,0,0,1,9.09,9.09h0a9.09,9.09,0,0,1-9.09,9.08H17.45a9.09,9.09,0,0,0-9.09,9.09h0a9.09,9.09,0,0,0,9.09,9.08H56.73a9.09,9.09,0,0,1,9.09,9.08h0a9.09,9.09,0,0,1-9.09,9.09H9.09A9.09,9.09,0,0,0,0,190.77H0a9.09,9.09,0,0,0,9.09,9.09H198.18a9.09,9.09,0,0,0,9.09-9.09h0a9.09,9.09,0,0,0-9.09-9.08H150.55a9.09,9.09,0,0,1-9.1-9.09h0a9.09,9.09,0,0,1,9.1-9.08h39.27a9.09,9.09,0,0,0,9.09-9.08h0a9.09,9.09,0,0,0-9.09-9.09H158.55a9.09,9.09,0,0,1-9.1-9.08h0a9.09,9.09,0,0,1,9.1-9.09h14.54a9.09,9.09,0,0,0,9.09-9.08h0a9.09,9.09,0,0,0-9.09-9.09H138.55a9.08,9.08,0,0,1-9.1-9.08h0a9.09,9.09,0,0,1,9.1-9.09h10.54a9.08,9.08,0,0,0,9.09-9.08h0a9.08,9.08,0,0,0-9.09-9.08H132.36a9.09,9.09,0,0,1-9.09-9.09h0a9.08,9.08,0,0,1,9.09-9.08h35.28a9.09,9.09,0,0,0,9.09-9.09h0a9.08,9.08,0,0,0-9.09-9.08H150.55a9.09,9.09,0,0,1-9.1-9.09h0a9.09,9.09,0,0,1,9.1-9.08h47.63A9.09,9.09,0,0,0,207.27,9.08Z"/></svg>