<svg id="f8bb0be4-6df9-490f-86f0-9e751a7781fa" data-name="Layer 1" xmlns="http://www.w3.org/2000/svg" viewBox="0 0 601 200.35"><title>cloudwrap1</title><rect x="226" y="0.49" width="79" height="18.17" rx="9"/><rect x="358" y="18.66" width="61" height="18.17" rx="9"/><rect x="128" y="36.83" width="95" height="18.17" rx="9"/><rect x="405" y="73.17" width="61" height="18.17" rx="9"/><rect x="206" y="91.34" width="79" height="18.17" rx="9"/><rect x="372" y="109.51" width="47" height="18.17" rx="9"/><rect x="254" y="127.68" width="95" height="18.17" rx="9"/><rect x="155" y="145.84" width="61" height="18.17" rx="9"/><rect x="413" y="146.18" width="85" height="18.17" rx="9"/><rect x="127" y="91.01" width="25" height="18.17" rx="9"/><rect x="136" width="31" height="18.17" rx="9"/><rect y="0.49" width="79" height="18.17" rx="9"/><rect x="74" y="55" width="31" height="18.17" rx="9"/><rect x="28" y="127.68" width="95" height="18.17" rx="9"/><rect x="132" y="182.18" width="53.81" height="18.17" rx="9"/><rect x="56" y="182.01" width="25" height="18.17" rx="9"/><rect x="469" y="18.66" width="61" height="18.17" rx="9"/><rect x="439" y="182.17" width="61" height="18.17" rx="9"/><rect x="483" y="109.51" width="47" height="18.17" rx="9"/><rect x="544" y="164.01" width="25" height="18.17" rx="9"/><rect x="570" width="31" height="18.17" rx="9"/><rect x="500" y="55.17" width="61" height="18.17" rx="9"/></svg>