<svg id="bf0eee4d-9485-422b-8381-f4110a02fd77" data-name="cloud1" xmlns="http://www.w3.org/2000/svg" viewBox="0 0 280.73 199.86"><title>Cloud4</title><path d="M280.73,9.08h0A9.09,9.09,0,0,0,271.64,0H9.09A9.09,9.09,0,0,0,0,9.08H0a9.09,9.09,0,0,0,9.09,9.09H49.82a9.09,9.09,0,0,1,9.09,9.08h0a9.09,9.09,0,0,1-9.09,9.09H30.18a9.08,9.08,0,0,0-9.09,9.08h0a9.09,9.09,0,0,0,9.09,9.09h56a9.08,9.08,0,0,1,9.09,9.08h0a9.09,9.09,0,0,1-9.09,9.09H65.45a9.08,9.08,0,0,0-9.09,9.08h0a9.08,9.08,0,0,0,9.09,9.08h.73a9.09,9.09,0,0,1,9.09,9.09h0A9.08,9.08,0,0,1,66.18,109H50.91a9.09,9.09,0,0,0-9.09,9.09h0a9.09,9.09,0,0,0,9.09,9.08H86.18a9.09,9.09,0,0,1,9.09,9.09h0a9.09,9.09,0,0,1-9.09,9.08h-56a9.09,9.09,0,0,0-9.09,9.09h0a9.09,9.09,0,0,0,9.09,9.08H43.64a9.09,9.09,0,0,1,9.09,9.08h0a9.09,9.09,0,0,1-9.09,9.09H9.09A9.09,9.09,0,0,0,0,190.77H0a9.09,9.09,0,0,0,9.09,9.09H271.64a9.09,9.09,0,0,0,9.09-9.09h0a9.09,9.09,0,0,0-9.09-9.08H237.09A9.09,9.09,0,0,1,228,172.6h0a9.09,9.09,0,0,1,9.09-9.08h13.46a9.09,9.09,0,0,0,9.09-9.08h0a9.09,9.09,0,0,0-9.09-9.09h-56a9.09,9.09,0,0,1-9.1-9.08h0a9.09,9.09,0,0,1,9.1-9.09h35.27a9.09,9.09,0,0,0,9.09-9.08h0a9.09,9.09,0,0,0-9.09-9.09H214.55a9.08,9.08,0,0,1-9.1-9.08h0a9.09,9.09,0,0,1,9.1-9.09h.72a9.08,9.08,0,0,0,9.09-9.08h0a9.08,9.08,0,0,0-9.09-9.08H194.55a9.09,9.09,0,0,1-9.1-9.09h0a9.08,9.08,0,0,1,9.1-9.08h56a9.09,9.09,0,0,0,9.09-9.09h0a9.08,9.08,0,0,0-9.09-9.08H230.91a9.09,9.09,0,0,1-9.09-9.09h0a9.09,9.09,0,0,1,9.09-9.08h40.73A9.09,9.09,0,0,0,280.73,9.08Z"/></svg>