<svg id="b690aa78-7666-41f1-bbc9-06a816d34c08" data-name="Layer 1" xmlns="http://www.w3.org/2000/svg" viewBox="0 0 207.27 200"><defs><style>.b5d0ff79-2b31-432a-9cfe-2dd43327815d{fill:#c1272d;}</style></defs><title>REDCLOUDS</title><path class="b5d0ff79-2b31-432a-9cfe-2dd43327815d" d="M207.27,9.09h0A9.09,9.09,0,0,0,198.18,0H9.09A9.09,9.09,0,0,0,0,9.09H0a9.09,9.09,0,0,0,9.09,9.09H56.73a9.09,9.09,0,0,1,9.09,9.09h0a9.09,9.09,0,0,1-9.09,9.09H39.64a9.09,9.09,0,0,0-9.09,9.09h0a9.09,9.09,0,0,0,9.09,9.1H74.91A9.09,9.09,0,0,1,84,63.64h0a9.09,9.09,0,0,1-9.09,9.09H58.18a9.09,9.09,0,0,0-9.09,9.09h0a9.09,9.09,0,0,0,9.09,9.09H68.73A9.09,9.09,0,0,1,77.82,100h0a9.09,9.09,0,0,1-9.09,9.09H34.18a9.09,9.09,0,0,0-9.09,9.09h0a9.09,9.09,0,0,0,9.09,9.09H48.73a9.09,9.09,0,0,1,9.09,9.09h0a9.09,9.09,0,0,1-9.09,9.09H17.45a9.09,9.09,0,0,0-9.09,9.1h0a9.09,9.09,0,0,0,9.09,9.09H56.73a9.09,9.09,0,0,1,9.09,9.09h0a9.09,9.09,0,0,1-9.09,9.09H9.09A9.09,9.09,0,0,0,0,190.91H0A9.09,9.09,0,0,0,9.09,200H198.18a9.09,9.09,0,0,0,9.09-9.09h0a9.09,9.09,0,0,0-9.09-9.09H150.55a9.09,9.09,0,0,1-9.1-9.09h0a9.09,9.09,0,0,1,9.1-9.09h39.27a9.09,9.09,0,0,0,9.09-9.09h0a9.09,9.09,0,0,0-9.09-9.1H158.55a9.09,9.09,0,0,1-9.1-9.09h0a9.09,9.09,0,0,1,9.1-9.09h14.54a9.09,9.09,0,0,0,9.09-9.09h0a9.09,9.09,0,0,0-9.09-9.09H138.55a9.09,9.09,0,0,1-9.1-9.09h0a9.09,9.09,0,0,1,9.1-9.09h10.54a9.09,9.09,0,0,0,9.09-9.09h0a9.09,9.09,0,0,0-9.09-9.09H132.36a9.09,9.09,0,0,1-9.09-9.09h0a9.09,9.09,0,0,1,9.09-9.09h35.28a9.09,9.09,0,0,0,9.09-9.1h0a9.09,9.09,0,0,0-9.09-9.09H150.55a9.09,9.09,0,0,1-9.1-9.09h0a9.09,9.09,0,0,1,9.1-9.09h47.63A9.09,9.09,0,0,0,207.27,9.09Z"/></svg>