<svg id="b39d7fd2-e4f8-4682-becb-a750c43a5990" data-name="Layer 1" xmlns="http://www.w3.org/2000/svg" viewBox="0 0 568.18 199.86"><title>cloudwrap4</title><rect x="211" y="181.63" width="79" height="18.17" rx="9"/><rect x="343" y="163.46" width="61" height="18.17" rx="9"/><rect x="113" y="145.29" width="95" height="18.17" rx="9"/><rect x="390" y="108.95" width="61" height="18.17" rx="9"/><rect x="191" y="90.78" width="79" height="18.17" rx="9"/><rect x="357" y="72.62" width="47" height="18.17" rx="9"/><rect x="148" y="36.28" width="61" height="18.17" rx="9"/><rect x="398" y="35.94" width="85" height="18.17" rx="9"/><rect x="112" y="91.11" width="25" height="18.17" rx="9"/><rect x="121" y="182.12" width="31" height="18.17" rx="9"/><rect x="59" y="127.12" width="31" height="18.17" rx="9"/><rect x="21" y="54.45" width="95" height="18.17" rx="9"/><rect x="117" y="-0.06" width="53.81" height="18.17" rx="9"/><rect x="454" y="163.46" width="61" height="18.17" rx="9"/><rect x="474" y="-0.05" width="61" height="18.17" rx="9"/><rect x="468" y="72.62" width="47" height="18.17" rx="9"/><rect x="345" y="18.11" width="25" height="18.17" rx="9"/><rect x="492" y="126.95" width="61" height="18.17" rx="9"/></svg>