<svg id="e49ee07e-55e8-48f0-9d6b-758977f1fa9d" data-name="Layer 1" xmlns="http://www.w3.org/2000/svg" viewBox="0 0 524 199.66"><title>cloudwrap5</title><rect x="253" y="163.84" width="61" height="18.17" rx="9" transform="translate(567 345.86) rotate(180)"/><rect x="358" y="127.51" width="31" height="18.17" rx="9" transform="translate(747 273.18) rotate(180)"/><rect y="73" width="47" height="18.17" rx="9" transform="translate(47 164.17) rotate(180)"/><rect x="71" y="18.49" width="25" height="18.17" rx="9" transform="translate(167 55.16) rotate(-180)"/><rect x="183" y="127.51" width="31" height="18.17" rx="9"/><rect x="365" y="73" width="47" height="18.17" rx="9"/><rect x="158" y="36.66" width="61" height="18.17" rx="9"/><rect x="348" y="18.49" width="25" height="18.17" rx="9"/><rect x="111" y="91.49" width="25" height="18.17" rx="9"/><rect x="431" y="109.49" width="25" height="18.17" rx="9"/><rect x="448" y="55.49" width="25" height="18.17" rx="9"/><rect x="57" y="128" width="47" height="18.17" rx="9"/><rect x="234" y="91" width="47" height="18.17" rx="9" transform="translate(515 200.17) rotate(180)"/><rect x="301" y="54.49" width="25" height="18.17" rx="9"/><rect x="252" width="47" height="18.17" rx="9"/><rect x="154" y="181.49" width="25" height="18.17" rx="9"/><rect x="477" y="91" width="47" height="18.17" rx="9" transform="translate(1001 200.17) rotate(180)"/></svg>