<svg id="af924c71-dd5e-4394-a4da-a375c4b01c1f" data-name="Layer 1" xmlns="http://www.w3.org/2000/svg" viewBox="0 0 568.18 199.86"><title>cloudwrap</title><rect x="143" y="-0.06" width="79" height="18.17" rx="9"/><rect x="252" y="18.11" width="61" height="18.17" rx="9"/><rect x="45" y="36.28" width="95" height="18.17" rx="9"/><rect x="177" y="54.45" width="31" height="18.17" rx="9"/><rect x="232" y="72.62" width="61" height="18.17" rx="9"/><rect x="3" y="90.78" width="79" height="18.17" rx="9"/><rect x="519" y="108.95" width="47" height="18.17" rx="9"/><rect x="395" y="127.12" width="95" height="18.17" rx="9"/><rect x="72" y="145.29" width="61" height="18.17" rx="9"/><rect x="490" y="163.46" width="25" height="18.17" rx="9"/><rect x="230" y="181.63" width="85" height="18.17" rx="9"/><rect x="334" y="0.11" width="61" height="18.17" rx="9"/><rect x="410" y="36.27" width="95" height="18.17" rx="9"/><rect x="352" y="54.44" width="31" height="18.17" rx="9"/><rect x="467" y="72.61" width="61" height="18.17" rx="9"/><rect x="328" y="90.79" width="79" height="18.17" rx="9"/><rect x="114" y="108.95" width="47" height="18.17" rx="9"/><rect x="368" y="182.12" width="95" height="18.17" rx="9"/><rect x="297" y="145.29" width="61" height="18.17" rx="9"/><rect x="173" y="163.46" width="25" height="18.17" rx="9"/><rect x="195" y="126.63" width="85" height="18.17" rx="9"/><rect x="430" y="90.46" width="25" height="18.17" rx="9"/><rect x="110" y="72.46" width="25" height="18.17" rx="9"/><rect x="33" y="126.46" width="25" height="18.17" rx="9"/><rect x="108" y="181.95" width="47" height="18.17" rx="9"/></svg>