<svg id="b89b1029-0698-4048-98a1-619a98ab01a1" data-name="Layer 1" xmlns="http://www.w3.org/2000/svg" viewBox="0 0 568.18 199.86"><title>cloudwrap</title><rect x="143" y="0.08" width="79" height="18.17" rx="9"/><rect x="252" y="18.25" width="61" height="18.17" rx="9"/><rect x="45" y="36.42" width="95" height="18.17" rx="9"/><rect x="177" y="54.59" width="31" height="18.17" rx="9"/><rect x="232" y="72.76" width="61" height="18.17" rx="9"/><rect x="3" y="90.92" width="79" height="18.17" rx="9"/><rect x="519" y="109.09" width="47" height="18.17" rx="9"/><rect x="395" y="127.26" width="95" height="18.17" rx="9"/><rect x="72" y="145.43" width="61" height="18.17" rx="9"/><rect x="490" y="163.6" width="25" height="18.17" rx="9"/><rect x="230" y="181.77" width="85" height="18.17" rx="9"/><rect x="334" y="0.25" width="61" height="18.17" rx="9"/><rect x="410" y="36.41" width="95" height="18.17" rx="9"/><rect x="352" y="54.58" width="31" height="18.17" rx="9"/><rect x="467" y="72.75" width="61" height="18.17" rx="9"/><rect x="328" y="90.93" width="79" height="18.17" rx="9"/><rect x="114" y="109.09" width="47" height="18.17" rx="9"/><rect x="368" y="182.26" width="95" height="18.17" rx="9"/><rect x="297" y="145.43" width="61" height="18.17" rx="9"/><rect x="173" y="163.6" width="25" height="18.17" rx="9"/><rect x="195" y="126.77" width="85" height="18.17" rx="9"/><rect x="430" y="90.6" width="25" height="18.17" rx="9"/><rect x="110" y="72.6" width="25" height="18.17" rx="9"/><rect x="33" y="126.6" width="25" height="18.17" rx="9"/><rect x="108" y="182.09" width="47" height="18.17" rx="9"/></svg>