<svg id="a92e8886-fea9-4674-ae43-f54779b00c43" data-name="Layer 1" xmlns="http://www.w3.org/2000/svg" viewBox="0 0 568.18 199.86"><title>cloudwrap</title><rect x="211" y="181.77" width="79" height="18.17" rx="9"/><rect x="343" y="163.6" width="61" height="18.17" rx="9"/><rect x="113" y="145.43" width="95" height="18.17" rx="9"/><rect x="390" y="109.09" width="61" height="18.17" rx="9"/><rect x="191" y="90.92" width="79" height="18.17" rx="9"/><rect x="357" y="72.76" width="47" height="18.17" rx="9"/><rect x="148" y="36.42" width="61" height="18.17" rx="9"/><rect x="398" y="36.08" width="85" height="18.17" rx="9"/><rect x="112" y="91.25" width="25" height="18.17" rx="9"/><rect x="121" y="182.26" width="31" height="18.17" rx="9"/><rect x="59" y="127.26" width="31" height="18.17" rx="9"/><rect x="21" y="54.59" width="95" height="18.17" rx="9"/><rect x="117" y="0.08" width="53.81" height="18.17" rx="9"/><rect x="454" y="163.6" width="61" height="18.17" rx="9"/><rect x="474" y="0.09" width="61" height="18.17" rx="9"/><rect x="468" y="72.76" width="47" height="18.17" rx="9"/><rect x="345" y="18.25" width="25" height="18.17" rx="9"/><rect x="492" y="127.09" width="61" height="18.17" rx="9"/></svg>