<svg id="e187c4fe-3d69-4e53-9aa8-4821a832bda5" data-name="Layer 1" xmlns="http://www.w3.org/2000/svg" viewBox="0 0 568.18 199.86"><title>cloudwrap</title><rect x="240.82" y="19.34" width="61" height="18.17" rx="9"/><rect x="345.82" y="55.67" width="31" height="18.17" rx="9"/><rect x="481.82" y="92.01" width="79" height="18.17" rx="9"/><rect x="7.82" y="110.19" width="47" height="18.17" rx="9"/><rect x="83.82" y="128.35" width="95" height="18.17" rx="9"/><rect x="58.82" y="164.69" width="25" height="18.17" rx="9"/><rect x="158.82" y="1.34" width="61" height="18.17" rx="9"/><rect x="170.82" y="55.68" width="31" height="18.17" rx="9"/><rect x="392.82" y="110.18" width="47" height="18.17" rx="9"/><rect x="215.82" y="146.52" width="61" height="18.17" rx="9"/><rect x="355.82" y="164.69" width="25" height="18.17" rx="9"/><rect x="118.82" y="91.69" width="25" height="18.17" rx="9"/><rect x="418.82" y="73.69" width="25" height="18.17" rx="9"/><rect x="495.82" y="127.69" width="25" height="18.17" rx="9"/><rect x="398.82" y="183.18" width="47" height="18.17" rx="9"/></svg>