<svg id="bbb8cc6a-a08e-4d3a-9b07-4f0c2985e4cf" data-name="Layer 1" xmlns="http://www.w3.org/2000/svg" viewBox="0 0 573 200.01"><title>cloudwrap4</title><rect x="253" y="18" width="61" height="18.17" rx="9" transform="translate(567 54.17) rotate(-180)"/><rect x="358" y="54.34" width="31" height="18.17" rx="9" transform="translate(747 126.84) rotate(-180)"/><rect x="494" y="90.68" width="79" height="18.17" rx="9" transform="translate(1067 199.52) rotate(180)"/><rect y="108.84" width="47" height="18.17" rx="9" transform="translate(47 235.86) rotate(-180)"/><rect x="76" y="127.01" width="95" height="18.17" rx="9" transform="translate(247 272.19) rotate(-180)"/><rect x="51" y="163.35" width="25" height="18.17" rx="9" transform="translate(127 344.87) rotate(180)"/><rect x="171" width="61" height="18.17" rx="9"/><rect x="183" y="54.34" width="31" height="18.17" rx="9"/><rect x="405" y="108.84" width="47" height="18.17" rx="9"/><rect x="208" y="145.18" width="61" height="18.17" rx="9"/><rect x="368" y="163.35" width="25" height="18.17" rx="9"/><rect x="111" y="90.35" width="25" height="18.17" rx="9"/><rect x="431" y="72.35" width="25" height="18.17" rx="9"/><rect x="508" y="126.35" width="25" height="18.17" rx="9"/><rect x="411" y="181.84" width="47" height="18.17" rx="9"/></svg>