<svg id="e2276892-a800-4579-94a0-3a95d71f55a0" data-name="Layer 1" xmlns="http://www.w3.org/2000/svg" viewBox="0 0 568.18 199.86"><title>cloudwrap</title><rect x="226" y="0.43" width="79" height="18.17" rx="9"/><rect x="358" y="18.6" width="61" height="18.17" rx="9"/><rect x="128" y="36.77" width="95" height="18.17" rx="9"/><rect x="405" y="73.11" width="61" height="18.17" rx="9"/><rect x="206" y="91.28" width="79" height="18.17" rx="9"/><rect x="372" y="109.45" width="47" height="18.17" rx="9"/><rect x="254" y="127.62" width="95" height="18.17" rx="9"/><rect x="155" y="145.78" width="61" height="18.17" rx="9"/><rect x="413" y="146.12" width="85" height="18.17" rx="9"/><rect x="127" y="90.95" width="25" height="18.17" rx="9"/><rect x="136" y="-0.06" width="31" height="18.17" rx="9"/><rect y="0.43" width="79" height="18.17" rx="9"/><rect x="74" y="54.94" width="31" height="18.17" rx="9"/><rect x="28" y="127.62" width="95" height="18.17" rx="9"/><rect x="132" y="182.12" width="53.81" height="18.17" rx="9"/><rect x="56" y="181.95" width="25" height="18.17" rx="9"/><rect x="319" y="182.11" width="61" height="18.17" rx="9"/><rect x="483" y="109.45" width="47" height="18.17" rx="9"/><rect x="544" y="163.95" width="25" height="18.17" rx="9"/><rect x="497" y="55.11" width="61" height="18.17" rx="9"/></svg>