<svg id="ac4a0560-1ba9-471e-b43c-38b9f728fa4a" data-name="Layer 1" xmlns="http://www.w3.org/2000/svg" viewBox="0 0 568.18 199.86"><title>cloudwrap</title><rect x="226" y="0.57" width="79" height="18.17" rx="9"/><rect x="358" y="18.74" width="61" height="18.17" rx="9"/><rect x="128" y="36.91" width="95" height="18.17" rx="9"/><rect x="405" y="73.25" width="61" height="18.17" rx="9"/><rect x="206" y="91.42" width="79" height="18.17" rx="9"/><rect x="372" y="109.59" width="47" height="18.17" rx="9"/><rect x="254" y="127.76" width="95" height="18.17" rx="9"/><rect x="155" y="145.92" width="61" height="18.17" rx="9"/><rect x="413" y="146.26" width="85" height="18.17" rx="9"/><rect x="127" y="91.09" width="25" height="18.17" rx="9"/><rect x="136" y="0.08" width="31" height="18.17" rx="9"/><rect y="0.57" width="79" height="18.17" rx="9"/><rect x="74" y="55.08" width="31" height="18.17" rx="9"/><rect x="28" y="127.76" width="95" height="18.17" rx="9"/><rect x="132" y="182.26" width="53.81" height="18.17" rx="9"/><rect x="56" y="182.09" width="25" height="18.17" rx="9"/><rect x="319" y="182.25" width="61" height="18.17" rx="9"/><rect x="483" y="109.59" width="47" height="18.17" rx="9"/><rect x="543" y="164.09" width="25" height="18.17" rx="9"/><rect x="497" y="55.25" width="61" height="18.17" rx="9"/></svg>