<svg id="b8930b7a-d4d3-46a3-84df-48124fffdb6a" data-name="cloud1" xmlns="http://www.w3.org/2000/svg" viewBox="0 0 325.82 199.86"><title>Cloud3</title><path d="M325.82,9.08h0A9.09,9.09,0,0,0,316.73,0H9.09A9.09,9.09,0,0,0,0,9.08H0a9.09,9.09,0,0,0,9.09,9.09H109.82a9.09,9.09,0,0,1,9.09,9.08h0a9.09,9.09,0,0,1-9.09,9.09H86.18a9.08,9.08,0,0,0-9.09,9.08h0a9.09,9.09,0,0,0,9.09,9.09h43.27a9.08,9.08,0,0,1,9.1,9.08h0a9.09,9.09,0,0,1-9.1,9.09H48.36a9.08,9.08,0,0,0-9.09,9.08h0a9.08,9.08,0,0,0,9.09,9.08H85.45a9.09,9.09,0,0,1,9.1,9.09h0a9.08,9.08,0,0,1-9.1,9.08H70.55a9.09,9.09,0,0,0-9.1,9.09h0a9.09,9.09,0,0,0,9.1,9.08h48a9.09,9.09,0,0,1,9.09,9.09h0a9.09,9.09,0,0,1-9.09,9.08H32.36a9.09,9.09,0,0,0-9.09,9.09h0a9.09,9.09,0,0,0,9.09,9.08h77.46a9.09,9.09,0,0,1,9.09,9.08h0a9.09,9.09,0,0,1-9.09,9.09H9.09A9.09,9.09,0,0,0,0,190.77H0a9.09,9.09,0,0,0,9.09,9.09H316.73a9.09,9.09,0,0,0,9.09-9.09h0a9.09,9.09,0,0,0-9.09-9.08H216a9.09,9.09,0,0,1-9.09-9.09h0a9.09,9.09,0,0,1,9.09-9.08h77.45a9.09,9.09,0,0,0,9.1-9.08h0a9.09,9.09,0,0,0-9.1-9.09H207.27a9.09,9.09,0,0,1-9.09-9.08h0a9.09,9.09,0,0,1,9.09-9.09h48a9.09,9.09,0,0,0,9.09-9.08h0a9.09,9.09,0,0,0-9.09-9.09H240.36a9.08,9.08,0,0,1-9.09-9.08h0a9.09,9.09,0,0,1,9.09-9.09h37.09a9.08,9.08,0,0,0,9.1-9.08h0a9.08,9.08,0,0,0-9.1-9.08H196.36a9.09,9.09,0,0,1-9.09-9.09h0a9.08,9.08,0,0,1,9.09-9.08h43.28a9.09,9.09,0,0,0,9.09-9.09h0a9.08,9.08,0,0,0-9.09-9.08H216a9.09,9.09,0,0,1-9.09-9.09h0A9.09,9.09,0,0,1,216,18.17H316.73A9.09,9.09,0,0,0,325.82,9.08Z"/></svg>