<svg id="e7671114-2705-402a-ad61-944fd44e5230" data-name="cloud1" xmlns="http://www.w3.org/2000/svg" viewBox="0 0 293.09 199.86"><title>Cloud2</title><path d="M293.09,9.08h0A9.09,9.09,0,0,0,284,0H9.09A9.09,9.09,0,0,0,0,9.08H0a9.09,9.09,0,0,0,9.09,9.09H55.64a9.09,9.09,0,0,1,9.09,9.08h0a9.09,9.09,0,0,1-9.09,9.09H41.09A9.08,9.08,0,0,0,32,45.42h0a9.09,9.09,0,0,0,9.09,9.09h64.73a9.08,9.08,0,0,1,9.09,9.08h0a9.09,9.09,0,0,1-9.09,9.09H84a9.08,9.08,0,0,0-9.09,9.08h0A9.08,9.08,0,0,0,84,90.84h34.55a9.09,9.09,0,0,1,9.09,9.09h0a9.08,9.08,0,0,1-9.09,9.08h-13.1a9.09,9.09,0,0,0-9.09,9.09h0a9.09,9.09,0,0,0,9.09,9.08h15.28a9.09,9.09,0,0,1,9.09,9.09h0a9.09,9.09,0,0,1-9.09,9.08H58.91a9.09,9.09,0,0,0-9.09,9.09h0a9.09,9.09,0,0,0,9.09,9.08H83.27a9.09,9.09,0,0,1,9.09,9.08h0a9.09,9.09,0,0,1-9.09,9.09H26.18a9.09,9.09,0,0,0-9.09,9.08h0a9.09,9.09,0,0,0,9.09,9.09H266.91a9.09,9.09,0,0,0,9.09-9.09h0a9.09,9.09,0,0,0-9.09-9.08H209.82a9.09,9.09,0,0,1-9.09-9.09h0a9.09,9.09,0,0,1,9.09-9.08h24.36a9.09,9.09,0,0,0,9.09-9.08h0a9.09,9.09,0,0,0-9.09-9.09H172.36a9.09,9.09,0,0,1-9.09-9.08h0a9.09,9.09,0,0,1,9.09-9.09h15.28a9.09,9.09,0,0,0,9.09-9.08h0a9.09,9.09,0,0,0-9.09-9.09H174.55a9.08,9.08,0,0,1-9.1-9.08h0a9.09,9.09,0,0,1,9.1-9.09h34.54a9.08,9.08,0,0,0,9.09-9.08h0a9.08,9.08,0,0,0-9.09-9.08H187.27a9.09,9.09,0,0,1-9.09-9.09h0a9.08,9.08,0,0,1,9.09-9.08H252a9.09,9.09,0,0,0,9.09-9.09h0A9.08,9.08,0,0,0,252,36.34H237.45a9.09,9.09,0,0,1-9.09-9.09h0a9.09,9.09,0,0,1,9.09-9.08H284A9.09,9.09,0,0,0,293.09,9.08Z"/></svg>