<svg id="e4bc474b-09a9-4600-8df3-bfbc3503f1e3" data-name="cloud1" xmlns="http://www.w3.org/2000/svg" viewBox="0 0 286.91 199.86"><title>Cloud6</title><path d="M286.91,9.08h0A9.09,9.09,0,0,0,277.82,0H9.09A9.09,9.09,0,0,0,0,9.08H0a9.09,9.09,0,0,0,9.09,9.09H75.27a9.09,9.09,0,0,1,9.09,9.08h0a9.09,9.09,0,0,1-9.09,9.09H61.09A9.08,9.08,0,0,0,52,45.42h0a9.09,9.09,0,0,0,9.09,9.09h49.46a9.08,9.08,0,0,1,9.09,9.08h0a9.09,9.09,0,0,1-9.09,9.09h-4.73a9.08,9.08,0,0,0-9.09,9.08h0a9.08,9.08,0,0,0,9.09,9.08h13.09A9.09,9.09,0,0,1,128,99.93h0a9.08,9.08,0,0,1-9.09,9.08H35.27a9.09,9.09,0,0,0-9.09,9.09h0a9.09,9.09,0,0,0,9.09,9.08h40a9.09,9.09,0,0,1,9.09,9.09h0a9.09,9.09,0,0,1-9.09,9.08H63.64a9.09,9.09,0,0,0-9.09,9.09h0a9.09,9.09,0,0,0,9.09,9.08h41.81a9.09,9.09,0,0,1,9.1,9.08h0a9.09,9.09,0,0,1-9.1,9.09H22.55a9.09,9.09,0,0,0-9.1,9.08h0a9.09,9.09,0,0,0,9.1,9.09H264.36a9.09,9.09,0,0,0,9.09-9.09h0a9.09,9.09,0,0,0-9.09-9.08H181.45a9.09,9.09,0,0,1-9.09-9.09h0a9.09,9.09,0,0,1,9.09-9.08h41.82a9.09,9.09,0,0,0,9.09-9.08h0a9.09,9.09,0,0,0-9.09-9.09H211.64a9.09,9.09,0,0,1-9.09-9.08h0a9.09,9.09,0,0,1,9.09-9.09h40a9.09,9.09,0,0,0,9.09-9.08h0a9.09,9.09,0,0,0-9.09-9.09H168a9.08,9.08,0,0,1-9.09-9.08h0A9.09,9.09,0,0,1,168,90.84h13.09a9.08,9.08,0,0,0,9.09-9.08h0a9.08,9.08,0,0,0-9.09-9.08h-4.73a9.09,9.09,0,0,1-9.09-9.09h0a9.08,9.08,0,0,1,9.09-9.08h49.46a9.09,9.09,0,0,0,9.09-9.09h0a9.08,9.08,0,0,0-9.09-9.08H211.64a9.09,9.09,0,0,1-9.09-9.09h0a9.09,9.09,0,0,1,9.09-9.08h66.18A9.09,9.09,0,0,0,286.91,9.08Z"/></svg>