<svg id="a046a56c-d3c7-432e-8508-8b9fccacfcc8" data-name="Layer 1" xmlns="http://www.w3.org/2000/svg" viewBox="0 0 568.18 199.86"><title>cloudwrap</title><rect x="279.82" y="164.62" width="61" height="18.17" rx="9"/><rect x="384.82" y="128.27" width="31" height="18.17" rx="9"/><rect x="26.82" y="73.77" width="47" height="18.17" rx="9"/><rect x="97.82" y="19.27" width="25" height="18.17" rx="9"/><rect x="209.82" y="128.28" width="31" height="18.17" rx="9"/><rect x="391.82" y="73.77" width="47" height="18.17" rx="9"/><rect x="184.82" y="37.43" width="61" height="18.17" rx="9"/><rect x="374.82" y="19.26" width="25" height="18.17" rx="9"/><rect x="137.82" y="92.26" width="25" height="18.17" rx="9"/><rect x="457.82" y="110.26" width="25" height="18.17" rx="9"/><rect x="474.82" y="56.26" width="25" height="18.17" rx="9"/><rect x="83.82" y="128.77" width="47" height="18.17" rx="9"/><rect x="260.82" y="91.77" width="47" height="18.17" rx="9"/><rect x="327.82" y="55.26" width="25" height="18.17" rx="9"/><rect x="278.82" y="0.77" width="47" height="18.17" rx="9"/><rect x="180.82" y="182.26" width="25" height="18.17" rx="9"/><rect x="503.82" y="91.77" width="47" height="18.17" rx="9"/></svg>