<svg id="bffc2272-992a-4c07-9318-e436aca17c51" data-name="Layer 1" xmlns="http://www.w3.org/2000/svg" viewBox="0 0 568.18 199.86"><title>cloudwrap</title><rect x="240.82" y="18.42" width="61" height="18.17" rx="9"/><rect x="345.82" y="54.75" width="31" height="18.17" rx="9"/><rect x="481.82" y="91.09" width="79" height="18.17" rx="9"/><rect x="7.82" y="109.27" width="47" height="18.17" rx="9"/><rect x="83.82" y="127.43" width="95" height="18.17" rx="9"/><rect x="58.82" y="163.77" width="25" height="18.17" rx="9"/><rect x="158.82" y="0.42" width="61" height="18.17" rx="9"/><rect x="170.82" y="54.76" width="31" height="18.17" rx="9"/><rect x="392.82" y="109.26" width="47" height="18.17" rx="9"/><rect x="215.82" y="145.6" width="61" height="18.17" rx="9"/><rect x="355.82" y="163.77" width="25" height="18.17" rx="9"/><rect x="118.82" y="90.77" width="25" height="18.17" rx="9"/><rect x="418.82" y="72.77" width="25" height="18.17" rx="9"/><rect x="495.82" y="126.77" width="25" height="18.17" rx="9"/><rect x="398.82" y="182.26" width="47" height="18.17" rx="9"/></svg>