<svg id="e2069000-3b42-4f44-be3d-10e8cb909c7e" data-name="Layer 1" xmlns="http://www.w3.org/2000/svg" viewBox="0 0 573 200.35"><title>cloudwrap3</title><rect x="150" width="79" height="18.17" rx="9"/><rect x="259" y="18.17" width="61" height="18.17" rx="9"/><rect x="52" y="36.34" width="95" height="18.17" rx="9"/><rect x="184" y="54.51" width="31" height="18.17" rx="9"/><rect x="239" y="72.68" width="61" height="18.17" rx="9"/><rect y="90.84" width="79" height="18.17" rx="9"/><rect x="526" y="109.01" width="47" height="18.17" rx="9"/><rect x="402" y="127.18" width="95" height="18.17" rx="9"/><rect x="79" y="145.35" width="61" height="18.17" rx="9"/><rect x="497" y="163.52" width="25" height="18.17" rx="9"/><rect x="237" y="181.69" width="85" height="18.17" rx="9"/><rect x="341" y="0.17" width="61" height="18.17" rx="9" transform="translate(743 18.51) rotate(-180)"/><rect x="417" y="36.34" width="95" height="18.17" rx="9" transform="translate(929 90.84) rotate(180)"/><rect x="359" y="54.51" width="31" height="18.17" rx="9" transform="translate(749 127.18) rotate(-180)"/><rect x="474" y="72.68" width="61" height="18.17" rx="9" transform="translate(1009 163.52) rotate(180)"/><rect x="335" y="90.84" width="79" height="18.17" rx="9" transform="translate(749 199.86) rotate(180)"/><rect x="121" y="109.01" width="47" height="18.17" rx="9" transform="translate(289 236.19) rotate(-180)"/><rect x="375" y="182.18" width="95" height="18.17" rx="9" transform="translate(845 382.53) rotate(-180)"/><rect x="304" y="145.35" width="61" height="18.17" rx="9" transform="translate(669 308.87) rotate(180)"/><rect x="180" y="163.52" width="25" height="18.17" rx="9" transform="translate(385 345.21) rotate(180)"/><rect x="202" y="126.69" width="85" height="18.17" rx="9" transform="translate(489 271.55) rotate(180)"/><rect x="437" y="90.52" width="25" height="18.17" rx="9"/><rect x="117" y="72.52" width="25" height="18.17" rx="9"/><rect x="40" y="126.52" width="25" height="18.17" rx="9"/><rect x="115" y="182.01" width="47" height="18.17" rx="9"/></svg>