<svg id="ed1af547-15bf-4a23-98e1-73c491b4ea6f" data-name="Layer 1" xmlns="http://www.w3.org/2000/svg" viewBox="0 0 568.18 199.86"><title>innerlayer</title><path d="M321.23,9.08h0A9.09,9.09,0,0,0,312.14,0H37.23a9.09,9.09,0,0,0-9.09,9.08h0a9.09,9.09,0,0,0,9.09,9.09H83.78a9.09,9.09,0,0,1,9.09,9.08h0a9.09,9.09,0,0,1-9.09,9.09H69.23a9.08,9.08,0,0,0-9.09,9.08h0a9.09,9.09,0,0,0,9.09,9.09H134a9.08,9.08,0,0,1,9.09,9.08h0A9.09,9.09,0,0,1,134,72.68H112.14a9.08,9.08,0,0,0-9.09,9.08h0a9.08,9.08,0,0,0,9.09,9.08h34.55a9.09,9.09,0,0,1,9.09,9.09h0a9.08,9.08,0,0,1-9.09,9.08h-13.1a9.09,9.09,0,0,0-9.09,9.09h0a9.09,9.09,0,0,0,9.09,9.08h15.28a9.09,9.09,0,0,1,9.09,9.09h0a9.09,9.09,0,0,1-9.09,9.08H87.05A9.09,9.09,0,0,0,78,154.44h0a9.09,9.09,0,0,0,9.09,9.08h24.36a9.09,9.09,0,0,1,9.09,9.08h0a9.09,9.09,0,0,1-9.09,9.09H54.32a9.09,9.09,0,0,0-9.09,9.08h0a9.09,9.09,0,0,0,9.09,9.09H295.05a9.09,9.09,0,0,0,9.09-9.09h0a9.09,9.09,0,0,0-9.09-9.08H238a9.09,9.09,0,0,1-9.09-9.09h0a9.09,9.09,0,0,1,9.09-9.08h24.36a9.09,9.09,0,0,0,9.09-9.08h0a9.09,9.09,0,0,0-9.09-9.09H200.5a9.09,9.09,0,0,1-9.09-9.08h0a9.09,9.09,0,0,1,9.09-9.09h15.28a9.09,9.09,0,0,0,9.09-9.08h0a9.09,9.09,0,0,0-9.09-9.09H202.69a9.08,9.08,0,0,1-9.1-9.08h0a9.09,9.09,0,0,1,9.1-9.09h34.54a9.08,9.08,0,0,0,9.09-9.08h0a9.08,9.08,0,0,0-9.09-9.08H215.41a9.09,9.09,0,0,1-9.09-9.09h0a9.08,9.08,0,0,1,9.09-9.08h64.73a9.09,9.09,0,0,0,9.09-9.09h0a9.08,9.08,0,0,0-9.09-9.08H265.59a9.09,9.09,0,0,1-9.09-9.09h0a9.09,9.09,0,0,1,9.09-9.08h46.55A9.09,9.09,0,0,0,321.23,9.08Z"/><path d="M562.14,9.08h0A9.09,9.09,0,0,0,553.05,0H284.32a9.09,9.09,0,0,0-9.09,9.08h0a9.09,9.09,0,0,0,9.09,9.09H350.5a9.09,9.09,0,0,1,9.09,9.08h0a9.09,9.09,0,0,1-9.09,9.09H336.32a9.08,9.08,0,0,0-9.09,9.08h0a9.09,9.09,0,0,0,9.09,9.09h49.46a9.08,9.08,0,0,1,9.09,9.08h0a9.09,9.09,0,0,1-9.09,9.09h-4.73A9.08,9.08,0,0,0,372,81.76h0a9.08,9.08,0,0,0,9.09,9.08h13.09a9.09,9.09,0,0,1,9.09,9.09h0a9.08,9.08,0,0,1-9.09,9.08H310.5a9.09,9.09,0,0,0-9.09,9.09h0a9.09,9.09,0,0,0,9.09,9.08h40a9.09,9.09,0,0,1,9.09,9.09h0a9.09,9.09,0,0,1-9.09,9.08H338.87a9.09,9.09,0,0,0-9.09,9.09h0a9.09,9.09,0,0,0,9.09,9.08h41.82a9.09,9.09,0,0,1,9.09,9.08h0a9.09,9.09,0,0,1-9.09,9.09H297.78a9.09,9.09,0,0,0-9.09,9.08h0a9.09,9.09,0,0,0,9.09,9.09H539.59a9.09,9.09,0,0,0,9.1-9.09h0a9.09,9.09,0,0,0-9.1-9.08h-82.9a9.09,9.09,0,0,1-9.1-9.09h0a9.09,9.09,0,0,1,9.1-9.08H498.5a9.09,9.09,0,0,0,9.09-9.08h0a9.09,9.09,0,0,0-9.09-9.09H486.87a9.09,9.09,0,0,1-9.09-9.08h0a9.09,9.09,0,0,1,9.09-9.09h40A9.09,9.09,0,0,0,536,118.1h0a9.09,9.09,0,0,0-9.09-9.09H443.23a9.08,9.08,0,0,1-9.09-9.08h0a9.09,9.09,0,0,1,9.09-9.09h13.09a9.08,9.08,0,0,0,9.09-9.08h0a9.08,9.08,0,0,0-9.09-9.08h-4.73a9.09,9.09,0,0,1-9.09-9.09h0a9.08,9.08,0,0,1,9.09-9.08h49.46a9.09,9.09,0,0,0,9.09-9.09h0a9.08,9.08,0,0,0-9.09-9.08H486.87a9.09,9.09,0,0,1-9.09-9.09h0a9.09,9.09,0,0,1,9.09-9.08h66.18A9.09,9.09,0,0,0,562.14,9.08Z"/></svg>