<svg id="ab3c5c3b-0127-470e-a88e-9a1a40c3fb52" data-name="Layer 1" xmlns="http://www.w3.org/2000/svg" viewBox="0 0 568.18 199.86"><title>innerlayer</title><path d="M548,9.37h0A9.08,9.08,0,0,0,538.87.29H270.14a9.08,9.08,0,0,0-9.09,9.08h0a9.08,9.08,0,0,0,9.09,9.08h66.18a9.09,9.09,0,0,1,9.09,9.09h0a9.08,9.08,0,0,1-9.09,9.08H322.14a9.09,9.09,0,0,0-9.09,9.09h0a9.09,9.09,0,0,0,9.09,9.08h49.45a9.09,9.09,0,0,1,9.1,9.09h0a9.09,9.09,0,0,1-9.1,9.08h-4.72a9.09,9.09,0,0,0-9.09,9.09h0a9.09,9.09,0,0,0,9.09,9.08H380a9.09,9.09,0,0,1,9.09,9.08h0A9.09,9.09,0,0,1,380,109.3H296.32a9.09,9.09,0,0,0-9.09,9.08h0a9.09,9.09,0,0,0,9.09,9.09h40a9.08,9.08,0,0,1,9.09,9.08h0a9.09,9.09,0,0,1-9.09,9.09H324.69a9.08,9.08,0,0,0-9.1,9.08h0a9.09,9.09,0,0,0,9.1,9.09H366.5a9.08,9.08,0,0,1,9.09,9.08h0A9.08,9.08,0,0,1,366.5,182H283.59a9.09,9.09,0,0,0-9.09,9.09h0a9.08,9.08,0,0,0,9.09,9.08H525.41a9.08,9.08,0,0,0,9.09-9.08h0a9.09,9.09,0,0,0-9.09-9.09H442.5a9.08,9.08,0,0,1-9.09-9.08h0a9.08,9.08,0,0,1,9.09-9.08h41.82a9.09,9.09,0,0,0,9.09-9.09h0a9.08,9.08,0,0,0-9.09-9.08H472.69a9.09,9.09,0,0,1-9.1-9.09h0a9.08,9.08,0,0,1,9.1-9.08h40a9.09,9.09,0,0,0,9.09-9.09h0a9.09,9.09,0,0,0-9.09-9.08H429.05a9.09,9.09,0,0,1-9.09-9.09h0a9.09,9.09,0,0,1,9.09-9.08h13.09a9.09,9.09,0,0,0,9.09-9.08h0A9.09,9.09,0,0,0,442.14,73h-4.73a9.09,9.09,0,0,1-9.09-9.08h0a9.09,9.09,0,0,1,9.09-9.09h49.46A9.09,9.09,0,0,0,496,45.71h0a9.09,9.09,0,0,0-9.09-9.09H472.69a9.08,9.08,0,0,1-9.1-9.08h0a9.09,9.09,0,0,1,9.1-9.09h66.18A9.08,9.08,0,0,0,548,9.37Z"/><path d="M308.87,9.37h0A9.08,9.08,0,0,0,299.78.29H37.23a9.08,9.08,0,0,0-9.09,9.08h0a9.08,9.08,0,0,0,9.09,9.08H78a9.09,9.09,0,0,1,9.09,9.09h0A9.08,9.08,0,0,1,78,36.62H58.32a9.09,9.09,0,0,0-9.09,9.09h0a9.09,9.09,0,0,0,9.09,9.08h56a9.09,9.09,0,0,1,9.09,9.09h0A9.09,9.09,0,0,1,114.32,73H93.59a9.09,9.09,0,0,0-9.09,9.09h0a9.09,9.09,0,0,0,9.09,9.08h.73a9.09,9.09,0,0,1,9.09,9.08h0a9.09,9.09,0,0,1-9.09,9.09H79.05A9.09,9.09,0,0,0,70,118.38h0a9.09,9.09,0,0,0,9.09,9.09h35.27a9.08,9.08,0,0,1,9.09,9.08h0a9.09,9.09,0,0,1-9.09,9.09h-56a9.08,9.08,0,0,0-9.09,9.08h0a9.09,9.09,0,0,0,9.09,9.09H71.78a9.08,9.08,0,0,1,9.09,9.08h0A9.08,9.08,0,0,1,71.78,182H37.23a9.09,9.09,0,0,0-9.09,9.09h0a9.08,9.08,0,0,0,9.09,9.08H299.78a9.08,9.08,0,0,0,9.09-9.08h0a9.09,9.09,0,0,0-9.09-9.09H265.23a9.08,9.08,0,0,1-9.09-9.08h0a9.08,9.08,0,0,1,9.09-9.08h13.46a9.09,9.09,0,0,0,9.09-9.09h0a9.08,9.08,0,0,0-9.09-9.08h-56a9.09,9.09,0,0,1-9.1-9.09h0a9.08,9.08,0,0,1,9.1-9.08H258a9.09,9.09,0,0,0,9.09-9.09h0A9.09,9.09,0,0,0,258,109.3H242.69a9.09,9.09,0,0,1-9.1-9.09h0a9.09,9.09,0,0,1,9.1-9.08h.72a9.09,9.09,0,0,0,9.09-9.08h0A9.09,9.09,0,0,0,243.41,73H222.69a9.09,9.09,0,0,1-9.1-9.08h0a9.09,9.09,0,0,1,9.1-9.09h56a9.09,9.09,0,0,0,9.09-9.08h0a9.09,9.09,0,0,0-9.09-9.09H259.05A9.08,9.08,0,0,1,250,27.54h0a9.09,9.09,0,0,1,9.09-9.09h40.73A9.08,9.08,0,0,0,308.87,9.37Z"/></svg>