<svg id="b8cadd7d-75bd-44e1-ac05-cf3d0318d37d" data-name="Layer 1" xmlns="http://www.w3.org/2000/svg" viewBox="0 0 568.18 199.86"><title>innerlayer</title><path d="M340.23,9.37h0A9.08,9.08,0,0,0,331.14.29H23.5a9.08,9.08,0,0,0-9.09,9.08h0a9.08,9.08,0,0,0,9.09,9.08H124.23a9.09,9.09,0,0,1,9.09,9.09h0a9.08,9.08,0,0,1-9.09,9.08H100.59a9.09,9.09,0,0,0-9.09,9.09h0a9.09,9.09,0,0,0,9.09,9.08h43.28A9.09,9.09,0,0,1,153,63.88h0A9.09,9.09,0,0,1,143.87,73H62.78a9.09,9.09,0,0,0-9.09,9.09h0a9.09,9.09,0,0,0,9.09,9.08H99.87a9.09,9.09,0,0,1,9.09,9.08h0a9.09,9.09,0,0,1-9.09,9.09H85a9.09,9.09,0,0,0-9.09,9.08h0A9.09,9.09,0,0,0,85,127.47h48a9.08,9.08,0,0,1,9.09,9.08h0a9.09,9.09,0,0,1-9.09,9.09H46.78a9.08,9.08,0,0,0-9.09,9.08h0a9.09,9.09,0,0,0,9.09,9.09h77.45a9.08,9.08,0,0,1,9.09,9.08h0a9.08,9.08,0,0,1-9.09,9.08H23.5a9.09,9.09,0,0,0-9.09,9.09h0a9.08,9.08,0,0,0,9.09,9.08H331.14a9.08,9.08,0,0,0,9.09-9.08h0a9.09,9.09,0,0,0-9.09-9.09H230.41a9.08,9.08,0,0,1-9.09-9.08h0a9.08,9.08,0,0,1,9.09-9.08h77.46a9.09,9.09,0,0,0,9.09-9.09h0a9.08,9.08,0,0,0-9.09-9.08H221.69a9.09,9.09,0,0,1-9.1-9.09h0a9.08,9.08,0,0,1,9.1-9.08h48a9.09,9.09,0,0,0,9.09-9.09h0a9.09,9.09,0,0,0-9.09-9.08H254.78a9.09,9.09,0,0,1-9.09-9.09h0a9.09,9.09,0,0,1,9.09-9.08h37.09A9.09,9.09,0,0,0,301,82.05h0A9.09,9.09,0,0,0,291.87,73H210.78a9.09,9.09,0,0,1-9.09-9.08h0a9.09,9.09,0,0,1,9.09-9.09h43.27a9.09,9.09,0,0,0,9.09-9.08h0a9.09,9.09,0,0,0-9.09-9.09H230.41a9.08,9.08,0,0,1-9.09-9.08h0a9.09,9.09,0,0,1,9.09-9.09H331.14A9.08,9.08,0,0,0,340.23,9.37Z"/><path d="M553.78,9.37h0A9.08,9.08,0,0,0,544.69.29H332a9.08,9.08,0,0,0-9.09,9.08h0A9.08,9.08,0,0,0,332,18.45H390.5a9.09,9.09,0,0,1,9.09,9.09h0a9.08,9.08,0,0,1-9.09,9.08h-2.18a9.09,9.09,0,0,0-9.09,9.09h0a9.09,9.09,0,0,0,9.09,9.08h18.91a9.09,9.09,0,0,1,9.09,9.09h0A9.09,9.09,0,0,1,407.23,73H364.69a9.09,9.09,0,0,0-9.1,9.09h0a9.09,9.09,0,0,0,9.1,9.08h16.72a9.09,9.09,0,0,1,9.09,9.08h0a9.09,9.09,0,0,1-9.09,9.09H346.87a9.09,9.09,0,0,0-9.09,9.08h0a9.09,9.09,0,0,0,9.09,9.09h51.27a9.08,9.08,0,0,1,9.09,9.08h0a9.09,9.09,0,0,1-9.09,9.09H373.05a9.08,9.08,0,0,0-9.09,9.08h0a9.09,9.09,0,0,0,9.09,9.09h8.36a9.08,9.08,0,0,1,9.09,9.08h0a9.08,9.08,0,0,1-9.09,9.08H336.69a9.09,9.09,0,0,0-9.1,9.09h0a9.08,9.08,0,0,0,9.1,9.08H540a9.08,9.08,0,0,0,9.09-9.08h0A9.09,9.09,0,0,0,540,182H495.23a9.08,9.08,0,0,1-9.09-9.08h0a9.08,9.08,0,0,1,9.09-9.08h8.36a9.09,9.09,0,0,0,9.1-9.09h0a9.08,9.08,0,0,0-9.1-9.08H478.5a9.09,9.09,0,0,1-9.09-9.09h0a9.08,9.08,0,0,1,9.09-9.08h51.28a9.09,9.09,0,0,0,9.09-9.09h0a9.09,9.09,0,0,0-9.09-9.08H495.23a9.09,9.09,0,0,1-9.09-9.09h0a9.09,9.09,0,0,1,9.09-9.08H512a9.09,9.09,0,0,0,9.09-9.08h0A9.09,9.09,0,0,0,512,73H469.41a9.09,9.09,0,0,1-9.09-9.08h0a9.09,9.09,0,0,1,9.09-9.09h18.91a9.09,9.09,0,0,0,9.09-9.08h0a9.09,9.09,0,0,0-9.09-9.09h-2.18a9.08,9.08,0,0,1-9.09-9.08h0a9.09,9.09,0,0,1,9.09-9.09h58.55A9.08,9.08,0,0,0,553.78,9.37Z"/></svg>