<svg id="e60772a8-0b69-4ab3-a84e-d255bbf5b842" data-name="Layer 1" xmlns="http://www.w3.org/2000/svg" viewBox="0 0 568.18 199.86"><title>innerlayer</title><path d="M560.41,9.23h0A9.09,9.09,0,0,0,551.32.14H243.69a9.09,9.09,0,0,0-9.1,9.09h0a9.09,9.09,0,0,0,9.1,9.08H344.41a9.09,9.09,0,0,1,9.09,9.09h0a9.09,9.09,0,0,1-9.09,9.08H320.78a9.09,9.09,0,0,0-9.09,9.08h0a9.09,9.09,0,0,0,9.09,9.09h43.27a9.09,9.09,0,0,1,9.09,9.08h0a9.09,9.09,0,0,1-9.09,9.09H283a9.09,9.09,0,0,0-9.09,9.08h0A9.09,9.09,0,0,0,283,91h37.09a9.08,9.08,0,0,1,9.09,9.08h0a9.09,9.09,0,0,1-9.09,9.09H305.14a9.08,9.08,0,0,0-9.09,9.08h0a9.08,9.08,0,0,0,9.09,9.08h48a9.09,9.09,0,0,1,9.09,9.09h0a9.08,9.08,0,0,1-9.09,9.08H267a9.09,9.09,0,0,0-9.09,9.09h0a9.08,9.08,0,0,0,9.09,9.08h77.45a9.09,9.09,0,0,1,9.09,9.09h0a9.09,9.09,0,0,1-9.09,9.08H243.69a9.09,9.09,0,0,0-9.1,9.09h0a9.09,9.09,0,0,0,9.1,9.08H551.32a9.09,9.09,0,0,0,9.09-9.08h0a9.09,9.09,0,0,0-9.09-9.09H450.59a9.09,9.09,0,0,1-9.09-9.08h0a9.09,9.09,0,0,1,9.09-9.09h77.46a9.08,9.08,0,0,0,9.09-9.08h0a9.09,9.09,0,0,0-9.09-9.09H441.87a9.08,9.08,0,0,1-9.09-9.08h0a9.09,9.09,0,0,1,9.09-9.09h48a9.08,9.08,0,0,0,9.09-9.08h0a9.08,9.08,0,0,0-9.09-9.08H475a9.09,9.09,0,0,1-9.09-9.09h0A9.08,9.08,0,0,1,475,91h37.09a9.09,9.09,0,0,0,9.09-9.09h0a9.09,9.09,0,0,0-9.09-9.08H431a9.09,9.09,0,0,1-9.09-9.09h0A9.09,9.09,0,0,1,431,54.65h43.27a9.09,9.09,0,0,0,9.09-9.09h0a9.09,9.09,0,0,0-9.09-9.08H450.59a9.09,9.09,0,0,1-9.09-9.08h0a9.09,9.09,0,0,1,9.09-9.09H551.32A9.09,9.09,0,0,0,560.41,9.23Z"/><path d="M214.14,9.23h0A9.09,9.09,0,0,0,205.05.14H16A9.09,9.09,0,0,0,6.87,9.23h0A9.09,9.09,0,0,0,16,18.31H63.59a9.09,9.09,0,0,1,9.1,9.09h0a9.09,9.09,0,0,1-9.1,9.08H46.5a9.09,9.09,0,0,0-9.09,9.08h0a9.09,9.09,0,0,0,9.09,9.09H81.78a9.09,9.09,0,0,1,9.09,9.08h0a9.09,9.09,0,0,1-9.09,9.09H65.05A9.09,9.09,0,0,0,56,81.9h0A9.09,9.09,0,0,0,65.05,91H75.59a9.08,9.08,0,0,1,9.1,9.08h0a9.09,9.09,0,0,1-9.1,9.09H41.05A9.08,9.08,0,0,0,32,118.24h0a9.08,9.08,0,0,0,9.09,9.08H55.59a9.09,9.09,0,0,1,9.1,9.09h0a9.08,9.08,0,0,1-9.1,9.08H24.32a9.09,9.09,0,0,0-9.09,9.09h0a9.08,9.08,0,0,0,9.09,9.08H63.59a9.09,9.09,0,0,1,9.1,9.09h0a9.09,9.09,0,0,1-9.1,9.08H16a9.09,9.09,0,0,0-9.09,9.09h0A9.09,9.09,0,0,0,16,200H205.05a9.09,9.09,0,0,0,9.09-9.08h0a9.09,9.09,0,0,0-9.09-9.09H157.41a9.09,9.09,0,0,1-9.09-9.08h0a9.09,9.09,0,0,1,9.09-9.09h39.28a9.08,9.08,0,0,0,9.09-9.08h0a9.09,9.09,0,0,0-9.09-9.09H165.41a9.08,9.08,0,0,1-9.09-9.08h0a9.09,9.09,0,0,1,9.09-9.09H180a9.08,9.08,0,0,0,9.09-9.08h0a9.08,9.08,0,0,0-9.09-9.08H145.41a9.09,9.09,0,0,1-9.09-9.09h0A9.08,9.08,0,0,1,145.41,91H156a9.09,9.09,0,0,0,9.09-9.09h0A9.09,9.09,0,0,0,156,72.82H139.23a9.09,9.09,0,0,1-9.09-9.09h0a9.09,9.09,0,0,1,9.09-9.08H174.5a9.09,9.09,0,0,0,9.09-9.09h0a9.09,9.09,0,0,0-9.09-9.08H157.41a9.09,9.09,0,0,1-9.09-9.08h0a9.09,9.09,0,0,1,9.09-9.09h47.64A9.09,9.09,0,0,0,214.14,9.23Z"/></svg>