<svg id="bea66b44-cd86-444b-a115-81cd67a3b9c1" data-name="Layer 1" xmlns="http://www.w3.org/2000/svg" viewBox="0 0 568.18 199.86"><title>innerlayer</title><path d="M269.14,9.37h0A9.08,9.08,0,0,0,260.05.29H47.32a9.08,9.08,0,0,0-9.09,9.08h0a9.08,9.08,0,0,0,9.09,9.08h58.55A9.09,9.09,0,0,1,115,27.54h0a9.08,9.08,0,0,1-9.09,9.08h-2.18a9.09,9.09,0,0,0-9.1,9.09h0a9.09,9.09,0,0,0,9.1,9.08h18.9a9.09,9.09,0,0,1,9.1,9.09h0a9.09,9.09,0,0,1-9.1,9.08H80.05A9.09,9.09,0,0,0,71,82.05h0a9.09,9.09,0,0,0,9.09,9.08H96.78a9.09,9.09,0,0,1,9.09,9.08h0a9.09,9.09,0,0,1-9.09,9.09H62.23a9.09,9.09,0,0,0-9.09,9.08h0a9.09,9.09,0,0,0,9.09,9.09H113.5a9.08,9.08,0,0,1,9.09,9.08h0a9.09,9.09,0,0,1-9.09,9.09H88.41a9.08,9.08,0,0,0-9.09,9.08h0a9.09,9.09,0,0,0,9.09,9.09h8.37a9.08,9.08,0,0,1,9.09,9.08h0A9.08,9.08,0,0,1,96.78,182H52.05A9.09,9.09,0,0,0,43,191.06h0a9.08,9.08,0,0,0,9.09,9.08H255.32a9.08,9.08,0,0,0,9.09-9.08h0a9.09,9.09,0,0,0-9.09-9.09H210.59a9.08,9.08,0,0,1-9.09-9.08h0a9.08,9.08,0,0,1,9.09-9.08H219a9.09,9.09,0,0,0,9.09-9.09h0a9.08,9.08,0,0,0-9.09-9.08H193.87a9.09,9.09,0,0,1-9.09-9.09h0a9.08,9.08,0,0,1,9.09-9.08h51.27a9.09,9.09,0,0,0,9.09-9.09h0a9.09,9.09,0,0,0-9.09-9.08H210.59a9.09,9.09,0,0,1-9.09-9.09h0a9.09,9.09,0,0,1,9.09-9.08h16.73a9.09,9.09,0,0,0,9.09-9.08h0A9.09,9.09,0,0,0,227.32,73H184.78a9.09,9.09,0,0,1-9.09-9.08h0a9.09,9.09,0,0,1,9.09-9.09h18.91a9.09,9.09,0,0,0,9.09-9.08h0a9.09,9.09,0,0,0-9.09-9.09H201.5a9.08,9.08,0,0,1-9.09-9.08h0a9.09,9.09,0,0,1,9.09-9.09h58.55A9.08,9.08,0,0,0,269.14,9.37Z"/><path d="M530.23,9.37h0A9.08,9.08,0,0,0,521.14.29H246.23a9.08,9.08,0,0,0-9.09,9.08h0a9.08,9.08,0,0,0,9.09,9.08h46.55a9.09,9.09,0,0,1,9.09,9.09h0a9.08,9.08,0,0,1-9.09,9.08H278.23a9.09,9.09,0,0,0-9.09,9.09h0a9.09,9.09,0,0,0,9.09,9.08H343a9.09,9.09,0,0,1,9.09,9.09h0A9.09,9.09,0,0,1,343,73H321.14a9.09,9.09,0,0,0-9.09,9.09h0a9.09,9.09,0,0,0,9.09,9.08h34.55a9.09,9.09,0,0,1,9.09,9.08h0a9.09,9.09,0,0,1-9.09,9.09h-13.1a9.09,9.09,0,0,0-9.09,9.08h0a9.09,9.09,0,0,0,9.09,9.09h15.28a9.08,9.08,0,0,1,9.09,9.08h0a9.09,9.09,0,0,1-9.09,9.09H296.05a9.08,9.08,0,0,0-9.09,9.08h0a9.09,9.09,0,0,0,9.09,9.09h24.36a9.08,9.08,0,0,1,9.09,9.08h0a9.08,9.08,0,0,1-9.09,9.08H263.32a9.09,9.09,0,0,0-9.09,9.09h0a9.08,9.08,0,0,0,9.09,9.08H504.05a9.08,9.08,0,0,0,9.09-9.08h0a9.09,9.09,0,0,0-9.09-9.09H447a9.08,9.08,0,0,1-9.09-9.08h0a9.08,9.08,0,0,1,9.09-9.08h24.36a9.09,9.09,0,0,0,9.09-9.09h0a9.08,9.08,0,0,0-9.09-9.08H409.5a9.09,9.09,0,0,1-9.09-9.09h0a9.08,9.08,0,0,1,9.09-9.08h15.28a9.09,9.09,0,0,0,9.09-9.09h0a9.09,9.09,0,0,0-9.09-9.08H411.69a9.09,9.09,0,0,1-9.1-9.09h0a9.09,9.09,0,0,1,9.1-9.08h34.54a9.09,9.09,0,0,0,9.09-9.08h0A9.09,9.09,0,0,0,446.23,73H424.41a9.09,9.09,0,0,1-9.09-9.08h0a9.09,9.09,0,0,1,9.09-9.09h64.73a9.09,9.09,0,0,0,9.09-9.08h0a9.09,9.09,0,0,0-9.09-9.09H474.59a9.08,9.08,0,0,1-9.09-9.08h0a9.09,9.09,0,0,1,9.09-9.09h46.55A9.08,9.08,0,0,0,530.23,9.37Z"/></svg>