<svg id="e6e621f3-8677-4de3-8327-eca0e37fecda" data-name="Layer 1" xmlns="http://www.w3.org/2000/svg" viewBox="0 0 568.18 199.86"><title>innerlayer</title><path d="M311,9.51h0A9.09,9.09,0,0,0,301.87.43H33.14a9.09,9.09,0,0,0-9.09,9.08h0a9.09,9.09,0,0,0,9.09,9.09H99.32a9.08,9.08,0,0,1,9.09,9.08h0a9.09,9.09,0,0,1-9.09,9.09H85.14a9.08,9.08,0,0,0-9.09,9.08h0a9.09,9.09,0,0,0,9.09,9.09h49.45a9.08,9.08,0,0,1,9.1,9.08h0a9.08,9.08,0,0,1-9.1,9.08h-4.72a9.09,9.09,0,0,0-9.09,9.09h0a9.08,9.08,0,0,0,9.09,9.08H143a9.09,9.09,0,0,1,9.09,9.09h0a9.09,9.09,0,0,1-9.09,9.08H59.32a9.09,9.09,0,0,0-9.09,9.09h0a9.09,9.09,0,0,0,9.09,9.08h40a9.09,9.09,0,0,1,9.09,9.08h0a9.09,9.09,0,0,1-9.09,9.09H87.69a9.09,9.09,0,0,0-9.1,9.08h0a9.09,9.09,0,0,0,9.1,9.09H129.5a9.09,9.09,0,0,1,9.09,9.08h0a9.09,9.09,0,0,1-9.09,9.09H46.59a9.08,9.08,0,0,0-9.09,9.08h0a9.09,9.09,0,0,0,9.09,9.09H288.41a9.09,9.09,0,0,0,9.09-9.09h0a9.08,9.08,0,0,0-9.09-9.08H205.5a9.09,9.09,0,0,1-9.09-9.09h0A9.09,9.09,0,0,1,205.5,164h41.82a9.09,9.09,0,0,0,9.09-9.09h0a9.09,9.09,0,0,0-9.09-9.08H235.69a9.09,9.09,0,0,1-9.1-9.09h0a9.09,9.09,0,0,1,9.1-9.08h40a9.09,9.09,0,0,0,9.09-9.08h0a9.09,9.09,0,0,0-9.09-9.09H192.05a9.09,9.09,0,0,1-9.09-9.08h0a9.09,9.09,0,0,1,9.09-9.09h13.09a9.08,9.08,0,0,0,9.09-9.08h0a9.09,9.09,0,0,0-9.09-9.09h-4.73A9.08,9.08,0,0,1,191.32,64h0a9.08,9.08,0,0,1,9.09-9.08h49.46A9.09,9.09,0,0,0,259,45.85h0a9.08,9.08,0,0,0-9.09-9.08H235.69a9.09,9.09,0,0,1-9.1-9.09h0a9.08,9.08,0,0,1,9.1-9.08h66.18A9.09,9.09,0,0,0,311,9.51Z"/><path d="M548.14,9.51h0A9.09,9.09,0,0,0,539.05.43H350a9.09,9.09,0,0,0-9.09,9.08h0A9.09,9.09,0,0,0,350,18.6h47.63a9.08,9.08,0,0,1,9.1,9.08h0a9.09,9.09,0,0,1-9.1,9.09H380.5a9.08,9.08,0,0,0-9.09,9.08h0a9.09,9.09,0,0,0,9.09,9.09h35.28A9.08,9.08,0,0,1,424.87,64h0a9.08,9.08,0,0,1-9.09,9.08H399.05A9.09,9.09,0,0,0,390,82.19h0a9.08,9.08,0,0,0,9.09,9.08h10.54a9.09,9.09,0,0,1,9.1,9.09h0a9.09,9.09,0,0,1-9.1,9.08H375.05a9.09,9.09,0,0,0-9.09,9.09h0a9.09,9.09,0,0,0,9.09,9.08h14.54a9.09,9.09,0,0,1,9.1,9.08h0a9.09,9.09,0,0,1-9.1,9.09H358.32a9.09,9.09,0,0,0-9.09,9.08h0a9.09,9.09,0,0,0,9.09,9.09h39.27a9.09,9.09,0,0,1,9.1,9.08h0a9.09,9.09,0,0,1-9.1,9.09H350a9.08,9.08,0,0,0-9.09,9.08h0a9.09,9.09,0,0,0,9.09,9.09H539.05a9.09,9.09,0,0,0,9.09-9.09h0a9.08,9.08,0,0,0-9.09-9.08H491.41a9.09,9.09,0,0,1-9.09-9.09h0a9.09,9.09,0,0,1,9.09-9.08h39.28a9.09,9.09,0,0,0,9.09-9.09h0a9.09,9.09,0,0,0-9.09-9.08H499.41a9.09,9.09,0,0,1-9.09-9.09h0a9.09,9.09,0,0,1,9.09-9.08H514a9.09,9.09,0,0,0,9.09-9.08h0a9.09,9.09,0,0,0-9.09-9.09H479.41a9.09,9.09,0,0,1-9.09-9.08h0a9.09,9.09,0,0,1,9.09-9.09H490a9.08,9.08,0,0,0,9.09-9.08h0A9.09,9.09,0,0,0,490,73.1H473.23A9.08,9.08,0,0,1,464.14,64h0a9.08,9.08,0,0,1,9.09-9.08H508.5a9.09,9.09,0,0,0,9.09-9.09h0a9.08,9.08,0,0,0-9.09-9.08H491.41a9.09,9.09,0,0,1-9.09-9.09h0a9.08,9.08,0,0,1,9.09-9.08h47.64A9.09,9.09,0,0,0,548.14,9.51Z"/></svg>