<svg id="b991b880-9717-40f8-923b-035b4b543093" data-name="Layer 1" xmlns="http://www.w3.org/2000/svg" viewBox="0 0 568.18 199.86"><title>innerlayer</title><path d="M293.78,9.08h0A9.09,9.09,0,0,0,284.69,0H16A9.09,9.09,0,0,0,6.87,9.08h0A9.09,9.09,0,0,0,16,18.17H82.14a9.09,9.09,0,0,1,9.09,9.08h0a9.09,9.09,0,0,1-9.09,9.09H68a9.08,9.08,0,0,0-9.09,9.08h0A9.09,9.09,0,0,0,68,54.51h49.45a9.08,9.08,0,0,1,9.09,9.08h0a9.09,9.09,0,0,1-9.09,9.09h-4.72a9.08,9.08,0,0,0-9.1,9.08h0a9.08,9.08,0,0,0,9.1,9.08h13.09a9.09,9.09,0,0,1,9.09,9.09h0a9.08,9.08,0,0,1-9.09,9.08H42.14a9.09,9.09,0,0,0-9.09,9.09h0a9.09,9.09,0,0,0,9.09,9.08h40a9.09,9.09,0,0,1,9.09,9.09h0a9.09,9.09,0,0,1-9.09,9.08H70.5a9.09,9.09,0,0,0-9.09,9.09h0a9.09,9.09,0,0,0,9.09,9.08h41.82a9.09,9.09,0,0,1,9.09,9.08h0a9.09,9.09,0,0,1-9.09,9.09H29.41a9.09,9.09,0,0,0-9.09,9.08h0a9.09,9.09,0,0,0,9.09,9.09H271.23a9.09,9.09,0,0,0,9.09-9.09h0a9.09,9.09,0,0,0-9.09-9.08H188.32a9.09,9.09,0,0,1-9.09-9.09h0a9.09,9.09,0,0,1,9.09-9.08h41.82a9.09,9.09,0,0,0,9.09-9.08h0a9.09,9.09,0,0,0-9.09-9.09H218.5a9.09,9.09,0,0,1-9.09-9.08h0a9.09,9.09,0,0,1,9.09-9.09h40a9.09,9.09,0,0,0,9.09-9.08h0A9.09,9.09,0,0,0,258.5,109H174.87a9.08,9.08,0,0,1-9.09-9.08h0a9.09,9.09,0,0,1,9.09-9.09H188a9.08,9.08,0,0,0,9.09-9.08h0A9.08,9.08,0,0,0,188,72.68h-4.73a9.09,9.09,0,0,1-9.09-9.09h0a9.08,9.08,0,0,1,9.09-9.08h49.46a9.09,9.09,0,0,0,9.09-9.09h0a9.08,9.08,0,0,0-9.09-9.08H218.5a9.09,9.09,0,0,1-9.09-9.09h0a9.09,9.09,0,0,1,9.09-9.08h66.19A9.09,9.09,0,0,0,293.78,9.08Z"/><path d="M557.23,9.08h0A9.09,9.09,0,0,0,548.14,0H240.5a9.09,9.09,0,0,0-9.09,9.08h0a9.09,9.09,0,0,0,9.09,9.09H341.23a9.09,9.09,0,0,1,9.09,9.08h0a9.09,9.09,0,0,1-9.09,9.09H317.59a9.08,9.08,0,0,0-9.09,9.08h0a9.09,9.09,0,0,0,9.09,9.09h43.28A9.08,9.08,0,0,1,370,63.59h0a9.09,9.09,0,0,1-9.09,9.09H279.78a9.08,9.08,0,0,0-9.09,9.08h0a9.08,9.08,0,0,0,9.09,9.08h37.09A9.09,9.09,0,0,1,326,99.93h0a9.08,9.08,0,0,1-9.09,9.08H302a9.09,9.09,0,0,0-9.09,9.09h0a9.09,9.09,0,0,0,9.09,9.08h48a9.09,9.09,0,0,1,9.09,9.09h0a9.09,9.09,0,0,1-9.09,9.08H263.78a9.09,9.09,0,0,0-9.09,9.09h0a9.09,9.09,0,0,0,9.09,9.08h77.45a9.09,9.09,0,0,1,9.09,9.08h0a9.09,9.09,0,0,1-9.09,9.09H240.5a9.09,9.09,0,0,0-9.09,9.08h0a9.09,9.09,0,0,0,9.09,9.09H548.14a9.09,9.09,0,0,0,9.09-9.09h0a9.09,9.09,0,0,0-9.09-9.08H447.41a9.09,9.09,0,0,1-9.09-9.09h0a9.09,9.09,0,0,1,9.09-9.08h77.46a9.09,9.09,0,0,0,9.09-9.08h0a9.09,9.09,0,0,0-9.09-9.09H438.69a9.09,9.09,0,0,1-9.1-9.08h0a9.09,9.09,0,0,1,9.1-9.09h48a9.09,9.09,0,0,0,9.09-9.08h0a9.09,9.09,0,0,0-9.09-9.09H471.78a9.08,9.08,0,0,1-9.09-9.08h0a9.09,9.09,0,0,1,9.09-9.09h37.09A9.08,9.08,0,0,0,518,81.76h0a9.08,9.08,0,0,0-9.09-9.08H427.78a9.09,9.09,0,0,1-9.09-9.09h0a9.08,9.08,0,0,1,9.09-9.08h43.27a9.09,9.09,0,0,0,9.09-9.09h0a9.08,9.08,0,0,0-9.09-9.08H447.41a9.09,9.09,0,0,1-9.09-9.09h0a9.09,9.09,0,0,1,9.09-9.08H548.14A9.09,9.09,0,0,0,557.23,9.08Z"/></svg>