<svg id="ece40f52-c170-4920-8fdb-241f90329de0" data-name="Layer 1" xmlns="http://www.w3.org/2000/svg" viewBox="0 0 568.18 199.86"><title>innerlayer</title><path d="M534.14,9.51h0A9.09,9.09,0,0,0,525.05.43H312.32a9.09,9.09,0,0,0-9.09,9.08h0a9.09,9.09,0,0,0,9.09,9.09h58.55A9.08,9.08,0,0,1,380,27.68h0a9.09,9.09,0,0,1-9.09,9.09h-2.18a9.08,9.08,0,0,0-9.1,9.08h0a9.09,9.09,0,0,0,9.1,9.09h18.9a9.08,9.08,0,0,1,9.1,9.08h0a9.08,9.08,0,0,1-9.1,9.08H345.05A9.09,9.09,0,0,0,336,82.19h0a9.08,9.08,0,0,0,9.09,9.08h16.73a9.09,9.09,0,0,1,9.09,9.09h0a9.09,9.09,0,0,1-9.09,9.08H327.23a9.09,9.09,0,0,0-9.09,9.09h0a9.09,9.09,0,0,0,9.09,9.08H378.5a9.09,9.09,0,0,1,9.09,9.08h0a9.09,9.09,0,0,1-9.09,9.09H353.41a9.09,9.09,0,0,0-9.09,9.08h0a9.09,9.09,0,0,0,9.09,9.09h8.37a9.09,9.09,0,0,1,9.09,9.08h0a9.09,9.09,0,0,1-9.09,9.09H317.05A9.08,9.08,0,0,0,308,191.2h0a9.09,9.09,0,0,0,9.09,9.09H520.32a9.09,9.09,0,0,0,9.09-9.09h0a9.08,9.08,0,0,0-9.09-9.08H475.59A9.09,9.09,0,0,1,466.5,173h0a9.09,9.09,0,0,1,9.09-9.08H484a9.09,9.09,0,0,0,9.09-9.09h0a9.09,9.09,0,0,0-9.09-9.08H458.87a9.09,9.09,0,0,1-9.09-9.09h0a9.09,9.09,0,0,1,9.09-9.08h51.27a9.09,9.09,0,0,0,9.09-9.08h0a9.09,9.09,0,0,0-9.09-9.09H475.59a9.09,9.09,0,0,1-9.09-9.08h0a9.09,9.09,0,0,1,9.09-9.09h16.73a9.08,9.08,0,0,0,9.09-9.08h0a9.09,9.09,0,0,0-9.09-9.09H449.78A9.08,9.08,0,0,1,440.69,64h0a9.08,9.08,0,0,1,9.09-9.08h18.91a9.09,9.09,0,0,0,9.09-9.09h0a9.08,9.08,0,0,0-9.09-9.08H466.5a9.09,9.09,0,0,1-9.09-9.09h0a9.08,9.08,0,0,1,9.09-9.08h58.55A9.09,9.09,0,0,0,534.14,9.51Z"/><path d="M321.05,9.51h0A9.09,9.09,0,0,0,312,.43H49.41a9.09,9.09,0,0,0-9.09,9.08h0a9.09,9.09,0,0,0,9.09,9.09H90.14a9.08,9.08,0,0,1,9.09,9.08h0a9.09,9.09,0,0,1-9.09,9.09H70.5a9.08,9.08,0,0,0-9.09,9.08h0a9.09,9.09,0,0,0,9.09,9.09h56A9.08,9.08,0,0,1,135.59,64h0a9.08,9.08,0,0,1-9.09,9.08H105.78a9.09,9.09,0,0,0-9.09,9.09h0a9.08,9.08,0,0,0,9.09,9.08h.72a9.09,9.09,0,0,1,9.09,9.09h0a9.09,9.09,0,0,1-9.09,9.08H91.23a9.09,9.09,0,0,0-9.09,9.09h0a9.09,9.09,0,0,0,9.09,9.08H126.5a9.09,9.09,0,0,1,9.09,9.08h0a9.09,9.09,0,0,1-9.09,9.09h-56a9.09,9.09,0,0,0-9.09,9.08h0A9.09,9.09,0,0,0,70.5,164H84A9.09,9.09,0,0,1,93.05,173h0A9.09,9.09,0,0,1,84,182.12H49.41a9.08,9.08,0,0,0-9.09,9.08h0a9.09,9.09,0,0,0,9.09,9.09H312a9.09,9.09,0,0,0,9.09-9.09h0a9.08,9.08,0,0,0-9.09-9.08H277.41a9.09,9.09,0,0,1-9.09-9.09h0a9.09,9.09,0,0,1,9.09-9.08h13.46a9.09,9.09,0,0,0,9.09-9.09h0a9.09,9.09,0,0,0-9.09-9.08h-56a9.09,9.09,0,0,1-9.09-9.09h0a9.09,9.09,0,0,1,9.09-9.08h35.27a9.09,9.09,0,0,0,9.09-9.08h0a9.09,9.09,0,0,0-9.09-9.09H254.87a9.09,9.09,0,0,1-9.09-9.08h0a9.09,9.09,0,0,1,9.09-9.09h.72a9.08,9.08,0,0,0,9.1-9.08h0a9.09,9.09,0,0,0-9.1-9.09H234.87A9.08,9.08,0,0,1,225.78,64h0a9.08,9.08,0,0,1,9.09-9.08h56A9.09,9.09,0,0,0,300,45.85h0a9.08,9.08,0,0,0-9.09-9.08H271.23a9.09,9.09,0,0,1-9.09-9.09h0a9.08,9.08,0,0,1,9.09-9.08H312A9.09,9.09,0,0,0,321.05,9.51Z"/></svg>