<svg id="a9fb7ac0-2611-464c-81ce-94cb0c7e3145" data-name="Layer 1" xmlns="http://www.w3.org/2000/svg" viewBox="0 0 568.18 199.86"><title>innerlayer</title><path d="M300.23,9.23h0A9.09,9.09,0,0,0,291.14.14H16.23A9.09,9.09,0,0,0,7.14,9.23h0a9.09,9.09,0,0,0,9.09,9.08H62.78a9.09,9.09,0,0,1,9.09,9.09h0a9.09,9.09,0,0,1-9.09,9.08H48.23a9.09,9.09,0,0,0-9.09,9.08h0a9.09,9.09,0,0,0,9.09,9.09H113a9.09,9.09,0,0,1,9.09,9.08h0A9.09,9.09,0,0,1,113,72.82H91.14a9.09,9.09,0,0,0-9.09,9.08h0A9.09,9.09,0,0,0,91.14,91h34.55a9.08,9.08,0,0,1,9.09,9.08h0a9.09,9.09,0,0,1-9.09,9.09h-13.1a9.08,9.08,0,0,0-9.09,9.08h0a9.08,9.08,0,0,0,9.09,9.08h15.28a9.09,9.09,0,0,1,9.09,9.09h0a9.08,9.08,0,0,1-9.09,9.08H66.05A9.09,9.09,0,0,0,57,154.58h0a9.08,9.08,0,0,0,9.09,9.08H90.41a9.09,9.09,0,0,1,9.09,9.09h0a9.09,9.09,0,0,1-9.09,9.08H33.32a9.09,9.09,0,0,0-9.09,9.09h0A9.09,9.09,0,0,0,33.32,200H274.05a9.09,9.09,0,0,0,9.09-9.08h0a9.09,9.09,0,0,0-9.09-9.09H217a9.09,9.09,0,0,1-9.09-9.08h0a9.09,9.09,0,0,1,9.09-9.09h24.36a9.08,9.08,0,0,0,9.09-9.08h0a9.09,9.09,0,0,0-9.09-9.09H179.5a9.08,9.08,0,0,1-9.09-9.08h0a9.09,9.09,0,0,1,9.09-9.09h15.28a9.08,9.08,0,0,0,9.09-9.08h0a9.08,9.08,0,0,0-9.09-9.08H181.69a9.09,9.09,0,0,1-9.1-9.09h0a9.08,9.08,0,0,1,9.1-9.08h34.54a9.09,9.09,0,0,0,9.09-9.09h0a9.09,9.09,0,0,0-9.09-9.08H194.41a9.09,9.09,0,0,1-9.09-9.09h0a9.09,9.09,0,0,1,9.09-9.08h64.73a9.09,9.09,0,0,0,9.09-9.09h0a9.09,9.09,0,0,0-9.09-9.08H244.59a9.09,9.09,0,0,1-9.09-9.08h0a9.09,9.09,0,0,1,9.09-9.09h46.55A9.09,9.09,0,0,0,300.23,9.23Z"/><path d="M539.05,9.23h0A9.09,9.09,0,0,0,530,.14H267.41a9.09,9.09,0,0,0-9.09,9.09h0a9.09,9.09,0,0,0,9.09,9.08h40.73a9.09,9.09,0,0,1,9.09,9.09h0a9.09,9.09,0,0,1-9.09,9.08H288.5a9.09,9.09,0,0,0-9.09,9.08h0a9.09,9.09,0,0,0,9.09,9.09h56a9.09,9.09,0,0,1,9.09,9.08h0a9.09,9.09,0,0,1-9.09,9.09H323.78a9.09,9.09,0,0,0-9.09,9.08h0A9.09,9.09,0,0,0,323.78,91h.72a9.08,9.08,0,0,1,9.09,9.08h0a9.09,9.09,0,0,1-9.09,9.09H309.23a9.08,9.08,0,0,0-9.09,9.08h0a9.08,9.08,0,0,0,9.09,9.08H344.5a9.09,9.09,0,0,1,9.09,9.09h0a9.08,9.08,0,0,1-9.09,9.08h-56a9.09,9.09,0,0,0-9.09,9.09h0a9.08,9.08,0,0,0,9.09,9.08H302a9.09,9.09,0,0,1,9.09,9.09h0a9.09,9.09,0,0,1-9.09,9.08H267.41a9.09,9.09,0,0,0-9.09,9.09h0a9.09,9.09,0,0,0,9.09,9.08H530a9.09,9.09,0,0,0,9.09-9.08h0a9.09,9.09,0,0,0-9.09-9.09H495.41a9.09,9.09,0,0,1-9.09-9.08h0a9.09,9.09,0,0,1,9.09-9.09h13.46a9.08,9.08,0,0,0,9.09-9.08h0a9.09,9.09,0,0,0-9.09-9.09h-56a9.08,9.08,0,0,1-9.09-9.08h0a9.09,9.09,0,0,1,9.09-9.09h35.27a9.08,9.08,0,0,0,9.09-9.08h0a9.08,9.08,0,0,0-9.09-9.08H472.87a9.09,9.09,0,0,1-9.09-9.09h0A9.08,9.08,0,0,1,472.87,91h.72a9.09,9.09,0,0,0,9.1-9.09h0a9.09,9.09,0,0,0-9.1-9.08H452.87a9.09,9.09,0,0,1-9.09-9.09h0a9.09,9.09,0,0,1,9.09-9.08h56A9.09,9.09,0,0,0,518,45.56h0a9.09,9.09,0,0,0-9.09-9.08H489.23a9.09,9.09,0,0,1-9.09-9.08h0a9.09,9.09,0,0,1,9.09-9.09H530A9.09,9.09,0,0,0,539.05,9.23Z"/></svg>