<svg id="ad0be8a8-8f86-4268-a4ad-79b34e62efc7" data-name="Layer 1" xmlns="http://www.w3.org/2000/svg" viewBox="0 0 568.18 199.86"><title>innerlayer</title><path d="M269,190.77h0a9.09,9.09,0,0,1-9.09,9.09H47.14a9.09,9.09,0,0,1-9.09-9.09h0a9.09,9.09,0,0,1,9.09-9.08h58.55a9.09,9.09,0,0,0,9.09-9.09h0a9.09,9.09,0,0,0-9.09-9.08H103.5a9.09,9.09,0,0,1-9.09-9.08h0a9.09,9.09,0,0,1,9.09-9.09h18.91a9.09,9.09,0,0,0,9.09-9.08h0a9.09,9.09,0,0,0-9.09-9.09H79.87a9.09,9.09,0,0,1-9.09-9.08h0A9.09,9.09,0,0,1,79.87,109H96.59a9.08,9.08,0,0,0,9.1-9.08h0a9.09,9.09,0,0,0-9.1-9.09H62.05A9.08,9.08,0,0,1,53,81.76h0a9.08,9.08,0,0,1,9.09-9.08h51.27a9.09,9.09,0,0,0,9.09-9.09h0a9.08,9.08,0,0,0-9.09-9.08H88.23a9.09,9.09,0,0,1-9.09-9.09h0a9.08,9.08,0,0,1,9.09-9.08h8.36a9.09,9.09,0,0,0,9.1-9.09h0a9.09,9.09,0,0,0-9.1-9.08H51.87a9.09,9.09,0,0,1-9.09-9.09h0A9.09,9.09,0,0,1,51.87,0H255.14a9.09,9.09,0,0,1,9.09,9.08h0a9.09,9.09,0,0,1-9.09,9.09H210.41a9.09,9.09,0,0,0-9.09,9.08h0a9.09,9.09,0,0,0,9.09,9.09h8.37a9.08,9.08,0,0,1,9.09,9.08h0a9.09,9.09,0,0,1-9.09,9.09H193.69a9.08,9.08,0,0,0-9.1,9.08h0a9.09,9.09,0,0,0,9.1,9.09H245a9.08,9.08,0,0,1,9.09,9.08h0A9.08,9.08,0,0,1,245,90.84H210.41a9.09,9.09,0,0,0-9.09,9.09h0a9.08,9.08,0,0,0,9.09,9.08h16.73a9.09,9.09,0,0,1,9.09,9.09h0a9.09,9.09,0,0,1-9.09,9.08H184.59a9.09,9.09,0,0,0-9.09,9.09h0a9.09,9.09,0,0,0,9.09,9.08H203.5a9.09,9.09,0,0,1,9.09,9.09h0a9.09,9.09,0,0,1-9.09,9.08h-2.18a9.09,9.09,0,0,0-9.09,9.08h0a9.09,9.09,0,0,0,9.09,9.09h58.55A9.09,9.09,0,0,1,269,190.77Z"/><path d="M515.14,9.08h0A9.09,9.09,0,0,0,506.05,0H317a9.09,9.09,0,0,0-9.09,9.08h0A9.09,9.09,0,0,0,317,18.17h47.63a9.09,9.09,0,0,1,9.1,9.08h0a9.09,9.09,0,0,1-9.1,9.09H347.5a9.08,9.08,0,0,0-9.09,9.08h0a9.09,9.09,0,0,0,9.09,9.09h35.28a9.08,9.08,0,0,1,9.09,9.08h0a9.09,9.09,0,0,1-9.09,9.09H366.05A9.08,9.08,0,0,0,357,81.76h0a9.08,9.08,0,0,0,9.09,9.08h10.54a9.09,9.09,0,0,1,9.1,9.09h0a9.08,9.08,0,0,1-9.1,9.08H342.05A9.09,9.09,0,0,0,333,118.1h0a9.09,9.09,0,0,0,9.09,9.08h14.54a9.09,9.09,0,0,1,9.1,9.09h0a9.09,9.09,0,0,1-9.1,9.08H325.32a9.09,9.09,0,0,0-9.09,9.09h0a9.09,9.09,0,0,0,9.09,9.08h39.27a9.09,9.09,0,0,1,9.1,9.08h0a9.09,9.09,0,0,1-9.1,9.09H317a9.09,9.09,0,0,0-9.09,9.08h0a9.09,9.09,0,0,0,9.09,9.09H506.05a9.09,9.09,0,0,0,9.09-9.09h0a9.09,9.09,0,0,0-9.09-9.08H458.41a9.09,9.09,0,0,1-9.09-9.09h0a9.09,9.09,0,0,1,9.09-9.08h39.28a9.09,9.09,0,0,0,9.09-9.08h0a9.09,9.09,0,0,0-9.09-9.09H466.41a9.09,9.09,0,0,1-9.09-9.08h0a9.09,9.09,0,0,1,9.09-9.09H481a9.09,9.09,0,0,0,9.09-9.08h0A9.09,9.09,0,0,0,481,109H446.41a9.08,9.08,0,0,1-9.09-9.08h0a9.09,9.09,0,0,1,9.09-9.09H457a9.08,9.08,0,0,0,9.09-9.08h0A9.08,9.08,0,0,0,457,72.68H440.23a9.09,9.09,0,0,1-9.09-9.09h0a9.08,9.08,0,0,1,9.09-9.08H475.5a9.09,9.09,0,0,0,9.09-9.09h0a9.08,9.08,0,0,0-9.09-9.08H458.41a9.09,9.09,0,0,1-9.09-9.09h0a9.09,9.09,0,0,1,9.09-9.08h47.64A9.09,9.09,0,0,0,515.14,9.08Z"/></svg>