<svg id="a4150181-a45b-426a-8d71-75271740beb9" data-name="Layer 1" xmlns="http://www.w3.org/2000/svg" viewBox="0 0 568.18 199.86"><title>innerlayer</title><path d="M340.23,9.51h0A9.09,9.09,0,0,0,331.14.43H23.5a9.09,9.09,0,0,0-9.09,9.08h0A9.09,9.09,0,0,0,23.5,18.6H124.23a9.08,9.08,0,0,1,9.09,9.08h0a9.09,9.09,0,0,1-9.09,9.09H100.59a9.08,9.08,0,0,0-9.09,9.08h0a9.09,9.09,0,0,0,9.09,9.09h43.28A9.08,9.08,0,0,1,153,64h0a9.08,9.08,0,0,1-9.09,9.08H62.78a9.09,9.09,0,0,0-9.09,9.09h0a9.08,9.08,0,0,0,9.09,9.08H99.87a9.09,9.09,0,0,1,9.09,9.09h0a9.09,9.09,0,0,1-9.09,9.08H85a9.09,9.09,0,0,0-9.09,9.09h0A9.09,9.09,0,0,0,85,127.61h48a9.09,9.09,0,0,1,9.09,9.08h0a9.09,9.09,0,0,1-9.09,9.09H46.78a9.09,9.09,0,0,0-9.09,9.08h0A9.09,9.09,0,0,0,46.78,164h77.45a9.09,9.09,0,0,1,9.09,9.08h0a9.09,9.09,0,0,1-9.09,9.09H23.5a9.08,9.08,0,0,0-9.09,9.08h0a9.09,9.09,0,0,0,9.09,9.09H331.14a9.09,9.09,0,0,0,9.09-9.09h0a9.08,9.08,0,0,0-9.09-9.08H230.41a9.09,9.09,0,0,1-9.09-9.09h0a9.09,9.09,0,0,1,9.09-9.08h77.46a9.09,9.09,0,0,0,9.09-9.09h0a9.09,9.09,0,0,0-9.09-9.08H221.69a9.09,9.09,0,0,1-9.1-9.09h0a9.09,9.09,0,0,1,9.1-9.08h48a9.09,9.09,0,0,0,9.09-9.08h0a9.09,9.09,0,0,0-9.09-9.09H254.78a9.09,9.09,0,0,1-9.09-9.08h0a9.09,9.09,0,0,1,9.09-9.09h37.09A9.08,9.08,0,0,0,301,82.19h0a9.09,9.09,0,0,0-9.09-9.09H210.78A9.08,9.08,0,0,1,201.69,64h0a9.08,9.08,0,0,1,9.09-9.08h43.27a9.09,9.09,0,0,0,9.09-9.09h0a9.08,9.08,0,0,0-9.09-9.08H230.41a9.09,9.09,0,0,1-9.09-9.09h0a9.08,9.08,0,0,1,9.09-9.08H331.14A9.09,9.09,0,0,0,340.23,9.51Z"/><path d="M541.87,9.51h0A9.09,9.09,0,0,0,532.78.43H257.87a9.09,9.09,0,0,0-9.09,9.08h0a9.09,9.09,0,0,0,9.09,9.09h46.54a9.08,9.08,0,0,1,9.09,9.08h0a9.09,9.09,0,0,1-9.09,9.09H289.87a9.08,9.08,0,0,0-9.09,9.08h0a9.09,9.09,0,0,0,9.09,9.09h64.72a9.08,9.08,0,0,1,9.1,9.08h0a9.08,9.08,0,0,1-9.1,9.08H332.78a9.09,9.09,0,0,0-9.09,9.09h0a9.08,9.08,0,0,0,9.09,9.08h34.54a9.09,9.09,0,0,1,9.09,9.09h0a9.09,9.09,0,0,1-9.09,9.08H354.23a9.09,9.09,0,0,0-9.09,9.09h0a9.09,9.09,0,0,0,9.09,9.08H369.5a9.09,9.09,0,0,1,9.09,9.08h0a9.09,9.09,0,0,1-9.09,9.09H307.69a9.09,9.09,0,0,0-9.1,9.08h0a9.09,9.09,0,0,0,9.1,9.09h24.36a9.09,9.09,0,0,1,9.09,9.08h0a9.09,9.09,0,0,1-9.09,9.09H275a9.08,9.08,0,0,0-9.09,9.08h0a9.09,9.09,0,0,0,9.09,9.09H515.69a9.09,9.09,0,0,0,9.09-9.09h0a9.08,9.08,0,0,0-9.09-9.08h-57.1A9.09,9.09,0,0,1,449.5,173h0a9.09,9.09,0,0,1,9.09-9.08H483a9.09,9.09,0,0,0,9.09-9.09h0a9.09,9.09,0,0,0-9.09-9.08H421.14a9.09,9.09,0,0,1-9.09-9.09h0a9.09,9.09,0,0,1,9.09-9.08h15.27a9.09,9.09,0,0,0,9.09-9.08h0a9.09,9.09,0,0,0-9.09-9.09H423.32a9.09,9.09,0,0,1-9.09-9.08h0a9.09,9.09,0,0,1,9.09-9.09h34.55A9.08,9.08,0,0,0,467,82.19h0a9.09,9.09,0,0,0-9.09-9.09H436.05A9.08,9.08,0,0,1,427,64h0a9.08,9.08,0,0,1,9.09-9.08h64.73a9.09,9.09,0,0,0,9.09-9.09h0a9.08,9.08,0,0,0-9.09-9.08H486.23a9.09,9.09,0,0,1-9.09-9.09h0a9.08,9.08,0,0,1,9.09-9.08h46.55A9.09,9.09,0,0,0,541.87,9.51Z"/></svg>