<svg id="b9e93ecd-b5a2-455d-b612-079853c672d2" data-name="Layer 1" xmlns="http://www.w3.org/2000/svg" viewBox="0 0 568.18 199.86"><title>innerlayer</title><path d="M542,9.23h0A9.09,9.09,0,0,0,532.87.14H343.78a9.09,9.09,0,0,0-9.09,9.09h0a9.09,9.09,0,0,0,9.09,9.08h47.63a9.09,9.09,0,0,1,9.09,9.09h0a9.09,9.09,0,0,1-9.09,9.08H374.32a9.09,9.09,0,0,0-9.09,9.08h0a9.09,9.09,0,0,0,9.09,9.09h35.27a9.09,9.09,0,0,1,9.1,9.08h0a9.09,9.09,0,0,1-9.1,9.09H392.87a9.09,9.09,0,0,0-9.09,9.08h0A9.09,9.09,0,0,0,392.87,91h10.54a9.08,9.08,0,0,1,9.09,9.08h0a9.09,9.09,0,0,1-9.09,9.09H368.87a9.08,9.08,0,0,0-9.09,9.08h0a9.08,9.08,0,0,0,9.09,9.08h14.54a9.09,9.09,0,0,1,9.09,9.09h0a9.08,9.08,0,0,1-9.09,9.08H352.14a9.09,9.09,0,0,0-9.09,9.09h0a9.08,9.08,0,0,0,9.09,9.08h39.27a9.09,9.09,0,0,1,9.09,9.09h0a9.09,9.09,0,0,1-9.09,9.08H343.78a9.09,9.09,0,0,0-9.09,9.09h0a9.09,9.09,0,0,0,9.09,9.08H532.87a9.09,9.09,0,0,0,9.09-9.08h0a9.09,9.09,0,0,0-9.09-9.09H485.23a9.09,9.09,0,0,1-9.09-9.08h0a9.09,9.09,0,0,1,9.09-9.09H524.5a9.08,9.08,0,0,0,9.09-9.08h0a9.09,9.09,0,0,0-9.09-9.09H493.23a9.08,9.08,0,0,1-9.09-9.08h0a9.09,9.09,0,0,1,9.09-9.09h14.55a9.08,9.08,0,0,0,9.09-9.08h0a9.08,9.08,0,0,0-9.09-9.08H473.23a9.09,9.09,0,0,1-9.09-9.09h0A9.08,9.08,0,0,1,473.23,91h10.55a9.09,9.09,0,0,0,9.09-9.09h0a9.09,9.09,0,0,0-9.09-9.08H467.05A9.09,9.09,0,0,1,458,63.73h0a9.09,9.09,0,0,1,9.09-9.08h35.27a9.09,9.09,0,0,0,9.09-9.09h0a9.09,9.09,0,0,0-9.09-9.08H485.23a9.09,9.09,0,0,1-9.09-9.08h0a9.09,9.09,0,0,1,9.09-9.09h47.64A9.09,9.09,0,0,0,542,9.23Z"/><path d="M306.69,9.23h0a9.09,9.09,0,0,0-9.1-9.09H35.05A9.09,9.09,0,0,0,26,9.23h0a9.09,9.09,0,0,0,9.09,9.08H75.78a9.09,9.09,0,0,1,9.09,9.09h0a9.09,9.09,0,0,1-9.09,9.08H56.14a9.09,9.09,0,0,0-9.09,9.08h0a9.09,9.09,0,0,0,9.09,9.09h56a9.09,9.09,0,0,1,9.09,9.08h0a9.09,9.09,0,0,1-9.09,9.09H91.41a9.09,9.09,0,0,0-9.09,9.08h0A9.09,9.09,0,0,0,91.41,91h.73a9.08,9.08,0,0,1,9.09,9.08h0a9.09,9.09,0,0,1-9.09,9.09H76.87a9.08,9.08,0,0,0-9.09,9.08h0a9.08,9.08,0,0,0,9.09,9.08h35.27a9.09,9.09,0,0,1,9.09,9.09h0a9.08,9.08,0,0,1-9.09,9.08h-56a9.09,9.09,0,0,0-9.09,9.09h0a9.08,9.08,0,0,0,9.09,9.08H69.59a9.09,9.09,0,0,1,9.1,9.09h0a9.09,9.09,0,0,1-9.1,9.08H35.05A9.09,9.09,0,0,0,26,190.92h0A9.09,9.09,0,0,0,35.05,200H297.59a9.09,9.09,0,0,0,9.1-9.08h0a9.09,9.09,0,0,0-9.1-9.09H263.05a9.09,9.09,0,0,1-9.09-9.08h0a9.09,9.09,0,0,1,9.09-9.09H276.5a9.08,9.08,0,0,0,9.09-9.08h0a9.09,9.09,0,0,0-9.09-9.09h-56a9.08,9.08,0,0,1-9.09-9.08h0a9.09,9.09,0,0,1,9.09-9.09h35.28a9.08,9.08,0,0,0,9.09-9.08h0a9.08,9.08,0,0,0-9.09-9.08H240.5a9.09,9.09,0,0,1-9.09-9.09h0A9.08,9.08,0,0,1,240.5,91h.73a9.09,9.09,0,0,0,9.09-9.09h0a9.09,9.09,0,0,0-9.09-9.08H220.5a9.09,9.09,0,0,1-9.09-9.09h0a9.09,9.09,0,0,1,9.09-9.08h56a9.09,9.09,0,0,0,9.09-9.09h0a9.09,9.09,0,0,0-9.09-9.08H256.87a9.09,9.09,0,0,1-9.09-9.08h0a9.09,9.09,0,0,1,9.09-9.09h40.72A9.09,9.09,0,0,0,306.69,9.23Z"/></svg>