<svg id="f1fc70f0-7569-43cb-b5de-e5b262c4629f" data-name="Layer 1" xmlns="http://www.w3.org/2000/svg" xmlns:xlink="http://www.w3.org/1999/xlink" viewBox="0 0 1695.55 199.86"><defs><style>.b3aaca1e-2bfb-49ba-9fe7-6c3ba0bc6095{fill:none;}.a0f8d9c9-08e5-4759-8582-dc73ed8e258b{clip-path:url(#a824bf2c-32e2-4c7b-91fe-eda5d7124b2a);}.a2c71c3a-3ae4-4241-9950-221c50af55f9{clip-path:url(#a8d4509a-cf56-4b41-ba6a-d0e6c1ef1fa2);}</style><clipPath id="a824bf2c-32e2-4c7b-91fe-eda5d7124b2a" transform="translate(103.95 0)"><rect class="b3aaca1e-2bfb-49ba-9fe7-6c3ba0bc6095" x="755" width="674" height="200"/></clipPath><clipPath id="a8d4509a-cf56-4b41-ba6a-d0e6c1ef1fa2" transform="translate(103.95 0)"><rect class="b3aaca1e-2bfb-49ba-9fe7-6c3ba0bc6095" width="755" height="200"/></clipPath></defs><title>surface2</title><g class="a0f8d9c9-08e5-4759-8582-dc73ed8e258b"><path d="M895.05,9.08h0A9.09,9.09,0,0,0,886,0H623.41a9.09,9.09,0,0,0-9.09,9.08h0a9.09,9.09,0,0,0,9.09,9.09h40.73a9.09,9.09,0,0,1,9.09,9.08h0a9.09,9.09,0,0,1-9.09,9.09H644.5a9.08,9.08,0,0,0-9.09,9.08h0a9.09,9.09,0,0,0,9.09,9.09h56a9.08,9.08,0,0,1,9.09,9.08h0a9.09,9.09,0,0,1-9.09,9.09H679.78a9.08,9.08,0,0,0-9.09,9.08h0a9.08,9.08,0,0,0,9.09,9.08h.72a9.09,9.09,0,0,1,9.09,9.09h0A9.08,9.08,0,0,1,680.5,109H665.23a9.09,9.09,0,0,0-9.09,9.09h0a9.09,9.09,0,0,0,9.09,9.08H700.5a9.09,9.09,0,0,1,9.09,9.09h0a9.09,9.09,0,0,1-9.09,9.08h-56a9.09,9.09,0,0,0-9.09,9.09h0a9.09,9.09,0,0,0,9.09,9.08H658a9.09,9.09,0,0,1,9.09,9.08h0a9.09,9.09,0,0,1-9.09,9.09H623.41a9.09,9.09,0,0,0-9.09,9.08h0a9.09,9.09,0,0,0,9.09,9.09H886a9.09,9.09,0,0,0,9.09-9.09h0a9.09,9.09,0,0,0-9.09-9.08H851.41a9.09,9.09,0,0,1-9.09-9.09h0a9.09,9.09,0,0,1,9.09-9.08h13.46a9.09,9.09,0,0,0,9.09-9.08h0a9.09,9.09,0,0,0-9.09-9.09h-56a9.09,9.09,0,0,1-9.09-9.08h0a9.09,9.09,0,0,1,9.09-9.09h35.27a9.09,9.09,0,0,0,9.09-9.08h0a9.09,9.09,0,0,0-9.09-9.09H828.87a9.08,9.08,0,0,1-9.09-9.08h0a9.09,9.09,0,0,1,9.09-9.09h.72a9.08,9.08,0,0,0,9.1-9.08h0a9.08,9.08,0,0,0-9.1-9.08H808.87a9.09,9.09,0,0,1-9.09-9.09h0a9.08,9.08,0,0,1,9.09-9.08h56A9.09,9.09,0,0,0,874,45.42h0a9.08,9.08,0,0,0-9.09-9.08H845.23a9.09,9.09,0,0,1-9.09-9.09h0a9.09,9.09,0,0,1,9.09-9.08H886A9.09,9.09,0,0,0,895.05,9.08Z" transform="translate(103.95 0)"/><path d="M1591.59,9.08h0A9.09,9.09,0,0,0,1582.5,0H1274.87a9.09,9.09,0,0,0-9.09,9.08h0a9.09,9.09,0,0,0,9.09,9.09h100.72a9.09,9.09,0,0,1,9.1,9.08h0a9.09,9.09,0,0,1-9.1,9.09H1352a9.08,9.08,0,0,0-9.09,9.08h0a9.09,9.09,0,0,0,9.09,9.09h43.27a9.08,9.08,0,0,1,9.09,9.08h0a9.09,9.09,0,0,1-9.09,9.09h-81.09a9.08,9.08,0,0,0-9.09,9.08h0a9.08,9.08,0,0,0,9.09,9.08h37.09a9.09,9.09,0,0,1,9.09,9.09h0a9.08,9.08,0,0,1-9.09,9.08h-14.91a9.09,9.09,0,0,0-9.09,9.09h0a9.09,9.09,0,0,0,9.09,9.08h48a9.09,9.09,0,0,1,9.09,9.09h0a9.09,9.09,0,0,1-9.09,9.08h-86.18a9.09,9.09,0,0,0-9.09,9.09h0a9.09,9.09,0,0,0,9.09,9.08h77.45a9.09,9.09,0,0,1,9.1,9.08h0a9.09,9.09,0,0,1-9.1,9.09H1274.87a9.09,9.09,0,0,0-9.09,9.08h0a9.09,9.09,0,0,0,9.09,9.09H1582.5a9.09,9.09,0,0,0,9.09-9.09h0a9.09,9.09,0,0,0-9.09-9.08H1481.78a9.09,9.09,0,0,1-9.09-9.09h0a9.09,9.09,0,0,1,9.09-9.08h77.45a9.09,9.09,0,0,0,9.09-9.08h0a9.09,9.09,0,0,0-9.09-9.09h-86.18a9.09,9.09,0,0,1-9.09-9.08h0a9.09,9.09,0,0,1,9.09-9.09h48a9.09,9.09,0,0,0,9.09-9.08h0a9.09,9.09,0,0,0-9.09-9.09h-14.91a9.08,9.08,0,0,1-9.09-9.08h0a9.09,9.09,0,0,1,9.09-9.09h37.09a9.08,9.08,0,0,0,9.09-9.08h0a9.08,9.08,0,0,0-9.09-9.08h-81.09a9.09,9.09,0,0,1-9.09-9.09h0a9.08,9.08,0,0,1,9.09-9.08h43.27a9.09,9.09,0,0,0,9.09-9.09h0a9.08,9.08,0,0,0-9.09-9.08h-23.63a9.09,9.09,0,0,1-9.09-9.09h0a9.09,9.09,0,0,1,9.09-9.08H1582.5A9.09,9.09,0,0,0,1591.59,9.08Z" transform="translate(103.95 0)"/><path d="M1056.32,9.08h0A9.09,9.09,0,0,0,1047.23,0H858.14a9.09,9.09,0,0,0-9.09,9.08h0a9.09,9.09,0,0,0,9.09,9.09h47.64a9.09,9.09,0,0,1,9.09,9.08h0a9.09,9.09,0,0,1-9.09,9.09H888.69a9.08,9.08,0,0,0-9.1,9.08h0a9.09,9.09,0,0,0,9.1,9.09H924a9.08,9.08,0,0,1,9.09,9.08h0A9.09,9.09,0,0,1,924,72.68H907.23a9.08,9.08,0,0,0-9.09,9.08h0a9.08,9.08,0,0,0,9.09,9.08h10.55a9.09,9.09,0,0,1,9.09,9.09h0a9.08,9.08,0,0,1-9.09,9.08H883.23a9.09,9.09,0,0,0-9.09,9.09h0a9.09,9.09,0,0,0,9.09,9.08h14.55a9.09,9.09,0,0,1,9.09,9.09h0a9.09,9.09,0,0,1-9.09,9.08H866.5a9.09,9.09,0,0,0-9.09,9.09h0a9.09,9.09,0,0,0,9.09,9.08h39.28a9.09,9.09,0,0,1,9.09,9.08h0a9.09,9.09,0,0,1-9.09,9.09H858.14a9.09,9.09,0,0,0-9.09,9.08h0a9.09,9.09,0,0,0,9.09,9.09h189.09a9.09,9.09,0,0,0,9.09-9.09h0a9.09,9.09,0,0,0-9.09-9.08H999.59a9.09,9.09,0,0,1-9.09-9.09h0a9.09,9.09,0,0,1,9.09-9.08h39.28a9.09,9.09,0,0,0,9.09-9.08h0a9.09,9.09,0,0,0-9.09-9.09h-31.28a9.09,9.09,0,0,1-9.09-9.08h0a9.09,9.09,0,0,1,9.09-9.09h14.55a9.09,9.09,0,0,0,9.09-9.08h0a9.09,9.09,0,0,0-9.09-9.09H987.59a9.08,9.08,0,0,1-9.09-9.08h0a9.09,9.09,0,0,1,9.09-9.09h10.55a9.08,9.08,0,0,0,9.09-9.08h0a9.08,9.08,0,0,0-9.09-9.08H981.41a9.09,9.09,0,0,1-9.09-9.09h0a9.08,9.08,0,0,1,9.09-9.08h35.28a9.09,9.09,0,0,0,9.09-9.09h0a9.08,9.08,0,0,0-9.09-9.08h-17.1a9.09,9.09,0,0,1-9.09-9.09h0a9.09,9.09,0,0,1,9.09-9.08h47.64A9.09,9.09,0,0,0,1056.32,9.08Z" transform="translate(103.95 0)"/><path d="M1318.23,9.08h0A9.09,9.09,0,0,0,1309.14,0H1034.23a9.09,9.09,0,0,0-9.09,9.08h0a9.09,9.09,0,0,0,9.09,9.09h46.55a9.09,9.09,0,0,1,9.09,9.08h0a9.09,9.09,0,0,1-9.09,9.09h-14.55a9.08,9.08,0,0,0-9.09,9.08h0a9.09,9.09,0,0,0,9.09,9.09H1131a9.08,9.08,0,0,1,9.09,9.08h0a9.09,9.09,0,0,1-9.09,9.09h-21.82a9.08,9.08,0,0,0-9.09,9.08h0a9.08,9.08,0,0,0,9.09,9.08h34.55a9.09,9.09,0,0,1,9.09,9.09h0a9.08,9.08,0,0,1-9.09,9.08h-13.1a9.09,9.09,0,0,0-9.09,9.09h0a9.09,9.09,0,0,0,9.09,9.08h15.28a9.09,9.09,0,0,1,9.09,9.09h0a9.09,9.09,0,0,1-9.09,9.08h-61.82a9.09,9.09,0,0,0-9.09,9.09h0a9.09,9.09,0,0,0,9.09,9.08h24.36a9.09,9.09,0,0,1,9.09,9.08h0a9.09,9.09,0,0,1-9.09,9.09h-57.09a9.09,9.09,0,0,0-9.09,9.08h0a9.09,9.09,0,0,0,9.09,9.09h240.73a9.09,9.09,0,0,0,9.09-9.09h0a9.09,9.09,0,0,0-9.09-9.08H1235a9.09,9.09,0,0,1-9.09-9.09h0a9.09,9.09,0,0,1,9.09-9.08h24.36a9.09,9.09,0,0,0,9.09-9.08h0a9.09,9.09,0,0,0-9.09-9.09H1197.5a9.09,9.09,0,0,1-9.09-9.08h0a9.09,9.09,0,0,1,9.09-9.09h15.28a9.09,9.09,0,0,0,9.09-9.08h0a9.09,9.09,0,0,0-9.09-9.09h-13.09a9.08,9.08,0,0,1-9.1-9.08h0a9.09,9.09,0,0,1,9.1-9.09h34.54a9.08,9.08,0,0,0,9.09-9.08h0a9.08,9.08,0,0,0-9.09-9.08h-21.82a9.09,9.09,0,0,1-9.09-9.09h0a9.08,9.08,0,0,1,9.09-9.08h64.73a9.09,9.09,0,0,0,9.09-9.09h0a9.08,9.08,0,0,0-9.09-9.08h-14.55a9.09,9.09,0,0,1-9.09-9.09h0a9.09,9.09,0,0,1,9.09-9.08h46.55A9.09,9.09,0,0,0,1318.23,9.08Z" transform="translate(103.95 0)"/></g><g class="a2c71c3a-3ae4-4241-9950-221c50af55f9"><path d="M862.14,9.08h0A9.09,9.09,0,0,0,853.05,0H640.32a9.09,9.09,0,0,0-9.09,9.08h0a9.09,9.09,0,0,0,9.09,9.09h58.55A9.09,9.09,0,0,1,708,27.25h0a9.09,9.09,0,0,1-9.09,9.09h-2.18a9.08,9.08,0,0,0-9.1,9.08h0a9.09,9.09,0,0,0,9.1,9.09h18.9a9.08,9.08,0,0,1,9.1,9.08h0a9.09,9.09,0,0,1-9.1,9.09H673.05A9.08,9.08,0,0,0,664,81.76h0a9.08,9.08,0,0,0,9.09,9.08h16.73a9.09,9.09,0,0,1,9.09,9.09h0a9.08,9.08,0,0,1-9.09,9.08H655.23a9.09,9.09,0,0,0-9.09,9.09h0a9.09,9.09,0,0,0,9.09,9.08H706.5a9.09,9.09,0,0,1,9.09,9.09h0a9.09,9.09,0,0,1-9.09,9.08H681.41a9.09,9.09,0,0,0-9.09,9.09h0a9.09,9.09,0,0,0,9.09,9.08h8.37a9.09,9.09,0,0,1,9.09,9.08h0a9.09,9.09,0,0,1-9.09,9.09H645.05a9.09,9.09,0,0,0-9.09,9.08h0a9.09,9.09,0,0,0,9.09,9.09H848.32a9.09,9.09,0,0,0,9.09-9.09h0a9.09,9.09,0,0,0-9.09-9.08H803.59a9.09,9.09,0,0,1-9.09-9.09h0a9.09,9.09,0,0,1,9.09-9.08H812a9.09,9.09,0,0,0,9.09-9.08h0a9.09,9.09,0,0,0-9.09-9.09H786.87a9.09,9.09,0,0,1-9.09-9.08h0a9.09,9.09,0,0,1,9.09-9.09h51.27a9.09,9.09,0,0,0,9.09-9.08h0a9.09,9.09,0,0,0-9.09-9.09H803.59a9.08,9.08,0,0,1-9.09-9.08h0a9.09,9.09,0,0,1,9.09-9.09h16.73a9.08,9.08,0,0,0,9.09-9.08h0a9.08,9.08,0,0,0-9.09-9.08H777.78a9.09,9.09,0,0,1-9.09-9.09h0a9.08,9.08,0,0,1,9.09-9.08h18.91a9.09,9.09,0,0,0,9.09-9.09h0a9.08,9.08,0,0,0-9.09-9.08H794.5a9.09,9.09,0,0,1-9.09-9.09h0a9.09,9.09,0,0,1,9.09-9.08h58.55A9.09,9.09,0,0,0,862.14,9.08Z" transform="translate(103.95 0)"/><path d="M356.14,9.08h0A9.09,9.09,0,0,0,347.05,0H78.32a9.09,9.09,0,0,0-9.09,9.08h0a9.09,9.09,0,0,0,9.09,9.09H144.5a9.09,9.09,0,0,1,9.09,9.08h0a9.09,9.09,0,0,1-9.09,9.09H130.32a9.08,9.08,0,0,0-9.09,9.08h0a9.09,9.09,0,0,0,9.09,9.09h49.46a9.08,9.08,0,0,1,9.09,9.08h0a9.09,9.09,0,0,1-9.09,9.09h-4.73A9.08,9.08,0,0,0,166,81.76h0a9.08,9.08,0,0,0,9.09,9.08h13.09a9.09,9.09,0,0,1,9.09,9.09h0a9.08,9.08,0,0,1-9.09,9.08H104.5a9.09,9.09,0,0,0-9.09,9.09h0a9.09,9.09,0,0,0,9.09,9.08h40a9.09,9.09,0,0,1,9.09,9.09h0a9.09,9.09,0,0,1-9.09,9.08H132.87a9.09,9.09,0,0,0-9.09,9.09h0a9.09,9.09,0,0,0,9.09,9.08h41.82a9.09,9.09,0,0,1,9.09,9.08h0a9.09,9.09,0,0,1-9.09,9.09H91.78a9.09,9.09,0,0,0-9.09,9.08h0a9.09,9.09,0,0,0,9.09,9.09H333.59a9.09,9.09,0,0,0,9.1-9.09h0a9.09,9.09,0,0,0-9.1-9.08h-82.9a9.09,9.09,0,0,1-9.1-9.09h0a9.09,9.09,0,0,1,9.1-9.08H292.5a9.09,9.09,0,0,0,9.09-9.08h0a9.09,9.09,0,0,0-9.09-9.09H280.87a9.09,9.09,0,0,1-9.09-9.08h0a9.09,9.09,0,0,1,9.09-9.09h40A9.09,9.09,0,0,0,330,118.1h0a9.09,9.09,0,0,0-9.09-9.09H237.23a9.08,9.08,0,0,1-9.09-9.08h0a9.09,9.09,0,0,1,9.09-9.09h13.09a9.08,9.08,0,0,0,9.09-9.08h0a9.08,9.08,0,0,0-9.09-9.08h-4.73a9.09,9.09,0,0,1-9.09-9.09h0a9.08,9.08,0,0,1,9.09-9.08h49.46a9.09,9.09,0,0,0,9.09-9.09h0a9.08,9.08,0,0,0-9.09-9.08H280.87a9.09,9.09,0,0,1-9.09-9.09h0a9.09,9.09,0,0,1,9.09-9.08h66.18A9.09,9.09,0,0,0,356.14,9.08Z" transform="translate(103.95 0)"/><path d="M649.59,9.08h0A9.09,9.09,0,0,0,640.5,0H332.87a9.09,9.09,0,0,0-9.09,9.08h0a9.09,9.09,0,0,0,9.09,9.09H433.59a9.09,9.09,0,0,1,9.1,9.08h0a9.09,9.09,0,0,1-9.1,9.09H410a9.08,9.08,0,0,0-9.09,9.08h0A9.09,9.09,0,0,0,410,54.51h43.27a9.08,9.08,0,0,1,9.09,9.08h0a9.09,9.09,0,0,1-9.09,9.09H372.14a9.08,9.08,0,0,0-9.09,9.08h0a9.08,9.08,0,0,0,9.09,9.08h37.09a9.09,9.09,0,0,1,9.09,9.09h0a9.08,9.08,0,0,1-9.09,9.08H394.32a9.09,9.09,0,0,0-9.09,9.09h0a9.09,9.09,0,0,0,9.09,9.08h48a9.09,9.09,0,0,1,9.09,9.09h0a9.09,9.09,0,0,1-9.09,9.08H356.14a9.09,9.09,0,0,0-9.09,9.09h0a9.09,9.09,0,0,0,9.09,9.08h77.45a9.09,9.09,0,0,1,9.1,9.08h0a9.09,9.09,0,0,1-9.1,9.09H332.87a9.09,9.09,0,0,0-9.09,9.08h0a9.09,9.09,0,0,0,9.09,9.09H640.5a9.09,9.09,0,0,0,9.09-9.09h0a9.09,9.09,0,0,0-9.09-9.08H539.78a9.09,9.09,0,0,1-9.09-9.09h0a9.09,9.09,0,0,1,9.09-9.08h77.45a9.09,9.09,0,0,0,9.09-9.08h0a9.09,9.09,0,0,0-9.09-9.09H531.05a9.09,9.09,0,0,1-9.09-9.08h0a9.09,9.09,0,0,1,9.09-9.09h48a9.09,9.09,0,0,0,9.09-9.08h0a9.09,9.09,0,0,0-9.09-9.09H564.14a9.08,9.08,0,0,1-9.09-9.08h0a9.09,9.09,0,0,1,9.09-9.09h37.09a9.08,9.08,0,0,0,9.09-9.08h0a9.08,9.08,0,0,0-9.09-9.08H520.14a9.09,9.09,0,0,1-9.09-9.09h0a9.08,9.08,0,0,1,9.09-9.08h43.27a9.09,9.09,0,0,0,9.09-9.09h0a9.08,9.08,0,0,0-9.09-9.08H539.78a9.09,9.09,0,0,1-9.09-9.09h0a9.09,9.09,0,0,1,9.09-9.08H640.5A9.09,9.09,0,0,0,649.59,9.08Z" transform="translate(103.95 0)"/><path d="M103.32,9.08h0A9.09,9.09,0,0,0,94.23,0H-94.86a9.09,9.09,0,0,0-9.09,9.08h0a9.09,9.09,0,0,0,9.09,9.09h47.64a9.09,9.09,0,0,1,9.09,9.08h0a9.09,9.09,0,0,1-9.09,9.09H-64.31a9.08,9.08,0,0,0-9.1,9.08h0a9.09,9.09,0,0,0,9.1,9.09H-29a9.08,9.08,0,0,1,9.09,9.08h0A9.09,9.09,0,0,1-29,72.68H-45.77a9.08,9.08,0,0,0-9.09,9.08h0a9.08,9.08,0,0,0,9.09,9.08h10.55a9.09,9.09,0,0,1,9.09,9.09h0A9.08,9.08,0,0,1-35.22,109H-69.77a9.09,9.09,0,0,0-9.09,9.09h0a9.09,9.09,0,0,0,9.09,9.08h14.55a9.09,9.09,0,0,1,9.09,9.09h0a9.09,9.09,0,0,1-9.09,9.08H-86.5a9.09,9.09,0,0,0-9.09,9.09h0a9.09,9.09,0,0,0,9.09,9.08h39.28a9.09,9.09,0,0,1,9.09,9.08h0a9.09,9.09,0,0,1-9.09,9.09H-94.86a9.09,9.09,0,0,0-9.09,9.08h0a9.09,9.09,0,0,0,9.09,9.09H94.23a9.09,9.09,0,0,0,9.09-9.09h0a9.09,9.09,0,0,0-9.09-9.08H46.59a9.09,9.09,0,0,1-9.09-9.09h0a9.09,9.09,0,0,1,9.09-9.08H85.87A9.09,9.09,0,0,0,95,154.44h0a9.09,9.09,0,0,0-9.09-9.09H54.59a9.09,9.09,0,0,1-9.09-9.08h0a9.09,9.09,0,0,1,9.09-9.09H69.14a9.09,9.09,0,0,0,9.09-9.08h0A9.09,9.09,0,0,0,69.14,109H34.59a9.08,9.08,0,0,1-9.09-9.08h0a9.09,9.09,0,0,1,9.09-9.09H45.14a9.08,9.08,0,0,0,9.09-9.08h0a9.08,9.08,0,0,0-9.09-9.08H28.41a9.09,9.09,0,0,1-9.09-9.09h0a9.08,9.08,0,0,1,9.09-9.08H63.69a9.09,9.09,0,0,0,9.09-9.09h0a9.08,9.08,0,0,0-9.09-9.08H46.59a9.09,9.09,0,0,1-9.09-9.09h0a9.09,9.09,0,0,1,9.09-9.08H94.23A9.09,9.09,0,0,0,103.32,9.08Z" transform="translate(103.95 0)"/></g></svg>